<?xml version="1.0" encoding="UTF-8" standalone="no"?>
<svg
   xmlns:dc="http://purl.org/dc/elements/1.1/"
   xmlns:cc="http://creativecommons.org/ns#"
   xmlns:rdf="http://www.w3.org/1999/02/22-rdf-syntax-ns#"
   xmlns:svg="http://www.w3.org/2000/svg"
   xmlns="http://www.w3.org/2000/svg"
   id="svg1093"
   version="1.1"
   viewBox="0 0 286.91275 144.59052"
   height="144.59052mm"
   width="286.91275mm">
  <defs
     id="defs1087">
    <clipPath
       id="p711d462d76-4-3">
      <rect
         height="295.20001"
         width="575.28003"
         x="115.056"
         y="39.360001"
         id="rect21264-8"
         style="stroke-linecap:butt;stroke-linejoin:round" />
    </clipPath>
    <clipPath
       id="clipPath880">
      <rect
         height="295.20001"
         width="575.28003"
         x="115.056"
         y="39.360001"
         id="rect878"
         style="stroke-linecap:butt;stroke-linejoin:round" />
    </clipPath>
    <clipPath
       id="clipPath884">
      <rect
         height="295.20001"
         width="575.28003"
         x="115.056"
         y="39.360001"
         id="rect882"
         style="stroke-linecap:butt;stroke-linejoin:round" />
    </clipPath>
    <clipPath
       id="clipPath888">
      <rect
         height="295.20001"
         width="575.28003"
         x="115.056"
         y="39.360001"
         id="rect886"
         style="stroke-linecap:butt;stroke-linejoin:round" />
    </clipPath>
    <clipPath
       id="clipPath892">
      <rect
         height="295.20001"
         width="575.28003"
         x="115.056"
         y="39.360001"
         id="rect890"
         style="stroke-linecap:butt;stroke-linejoin:round" />
    </clipPath>
    <clipPath
       id="clipPath896">
      <rect
         height="295.20001"
         width="575.28003"
         x="115.056"
         y="39.360001"
         id="rect894"
         style="stroke-linecap:butt;stroke-linejoin:round" />
    </clipPath>
    <clipPath
       id="clipPath900">
      <rect
         height="295.20001"
         width="575.28003"
         x="115.056"
         y="39.360001"
         id="rect898"
         style="stroke-linecap:butt;stroke-linejoin:round" />
    </clipPath>
    <clipPath
       id="clipPath904">
      <rect
         height="295.20001"
         width="575.28003"
         x="115.056"
         y="39.360001"
         id="rect902"
         style="stroke-linecap:butt;stroke-linejoin:round" />
    </clipPath>
    <clipPath
       id="clipPath908">
      <rect
         height="295.20001"
         width="575.28003"
         x="115.056"
         y="39.360001"
         id="rect906"
         style="stroke-linecap:butt;stroke-linejoin:round" />
    </clipPath>
    <clipPath
       id="clipPath912">
      <rect
         height="295.20001"
         width="575.28003"
         x="115.056"
         y="39.360001"
         id="rect910"
         style="stroke-linecap:butt;stroke-linejoin:round" />
    </clipPath>
    <clipPath
       id="clipPath916">
      <rect
         height="295.20001"
         width="575.28003"
         x="115.056"
         y="39.360001"
         id="rect914"
         style="stroke-linecap:butt;stroke-linejoin:round" />
    </clipPath>
    <clipPath
       id="clipPath920">
      <rect
         height="295.20001"
         width="575.28003"
         x="115.056"
         y="39.360001"
         id="rect918"
         style="stroke-linecap:butt;stroke-linejoin:round" />
    </clipPath>
    <clipPath
       id="clipPath924">
      <rect
         height="295.20001"
         width="575.28003"
         x="115.056"
         y="39.360001"
         id="rect922"
         style="stroke-linecap:butt;stroke-linejoin:round" />
    </clipPath>
    <clipPath
       id="clipPath928">
      <rect
         height="295.20001"
         width="575.28003"
         x="115.056"
         y="39.360001"
         id="rect926"
         style="stroke-linecap:butt;stroke-linejoin:round" />
    </clipPath>
    <clipPath
       id="clipPath932">
      <rect
         height="295.20001"
         width="575.28003"
         x="115.056"
         y="39.360001"
         id="rect930"
         style="stroke-linecap:butt;stroke-linejoin:round" />
    </clipPath>
    <clipPath
       id="clipPath936">
      <rect
         height="295.20001"
         width="575.28003"
         x="115.056"
         y="39.360001"
         id="rect934"
         style="stroke-linecap:butt;stroke-linejoin:round" />
    </clipPath>
    <clipPath
       id="clipPath940">
      <rect
         height="295.20001"
         width="575.28003"
         x="115.056"
         y="39.360001"
         id="rect938"
         style="stroke-linecap:butt;stroke-linejoin:round" />
    </clipPath>
    <clipPath
       id="clipPath944">
      <rect
         height="295.20001"
         width="575.28003"
         x="115.056"
         y="39.360001"
         id="rect942"
         style="stroke-linecap:butt;stroke-linejoin:round" />
    </clipPath>
    <clipPath
       id="clipPath948">
      <rect
         height="295.20001"
         width="575.28003"
         x="115.056"
         y="39.360001"
         id="rect946"
         style="stroke-linecap:butt;stroke-linejoin:round" />
    </clipPath>
    <clipPath
       id="clipPath952">
      <rect
         height="295.20001"
         width="575.28003"
         x="115.056"
         y="39.360001"
         id="rect950"
         style="stroke-linecap:butt;stroke-linejoin:round" />
    </clipPath>
    <clipPath
       id="clipPath956">
      <rect
         height="295.20001"
         width="575.28003"
         x="115.056"
         y="39.360001"
         id="rect954"
         style="stroke-linecap:butt;stroke-linejoin:round" />
    </clipPath>
    <clipPath
       id="clipPath960">
      <rect
         height="295.20001"
         width="575.28003"
         x="115.056"
         y="39.360001"
         id="rect958"
         style="stroke-linecap:butt;stroke-linejoin:round" />
    </clipPath>
    <clipPath
       id="clipPath964">
      <rect
         height="295.20001"
         width="575.28003"
         x="115.056"
         y="39.360001"
         id="rect962"
         style="stroke-linecap:butt;stroke-linejoin:round" />
    </clipPath>
    <clipPath
       id="clipPath968">
      <rect
         height="295.20001"
         width="575.28003"
         x="115.056"
         y="39.360001"
         id="rect966"
         style="stroke-linecap:butt;stroke-linejoin:round" />
    </clipPath>
    <clipPath
       id="clipPath972">
      <rect
         height="295.20001"
         width="575.28003"
         x="115.056"
         y="39.360001"
         id="rect970"
         style="stroke-linecap:butt;stroke-linejoin:round" />
    </clipPath>
  </defs>
  <metadata
     id="metadata1090">
    <rdf:RDF>
      <cc:Work
         rdf:about="">
        <dc:format>image/svg+xml</dc:format>
        <dc:type
           rdf:resource="http://purl.org/dc/dcmitype/StillImage" />
        <dc:title></dc:title>
      </cc:Work>
    </rdf:RDF>
  </metadata>
  <g
     transform="translate(3.6051771,129.83692)"
     id="layer1">
    <path
       id="path3165"
       d="M 60.030967,2.2634348 C 59.801613,2.1184048 58.980132,2.0840148 58.478744,2.1506748 57.977356,2.2173748 57.778664,2.4720648 57.343531,2.3016148 56.908397,2.1311748 56.637974,1.4501348 56.285197,1.0243948 54.79522,-0.1259452 55.238683,-2.0827052 54.66242,-3.5769152 54.4242,-4.1951752 54.772199,-4.0793352 53.674641,-5.2921752 52.577086,-6.5050152 52.719342,-7.4328352 53.132949,-8.2326652 53.546559,-9.0324952 52.924169,-9.7816952 53.014595,-10.224185 53.105025,-10.666685 52.942735,-10.627845 52.885889,-11.393645 52.829049,-12.159455 52.551662,-13.781365 52.389086,-14.298565 52.22651,-14.815755 51.900588,-14.978465 52.02099,-15.469575 52.141391,-15.960685 52.872535,-16.321115 53.298308,-16.746885 53.724078,-17.172655 54.157773,-17.827355 54.575621,-18.024205 54.993472,-18.221055 55.216037,-18.085305 55.536244,-18.115905 55.856451,-18.146505 56.295849,-18.010715 56.496864,-18.207605 57.041416,-19.429755 56.355934,-19.904885 55.522253,-20.561985 55.01784,-20.967335 54.944641,-21.617135 54.944641,-21.785035 54.944641,-21.952935 54.935041,-23.268895 55.373938,-23.754705 56.350507,-24.830505 56.546891,-24.575675 55.507568,-25.546325 55.353181,-25.641725 55.226864,-26.494745 55.226864,-27.107755 55.095054,-28.184495 55.146604,-28.467175 55.93242,-28.958005 56.608621,-29.253555 56.646303,-29.482885 56.637974,-30.049659 56.637974,-30.327627 56.953553,-30.964612 57.203193,-31.190531 57.741178,-31.93531 58.167684,-31.590542 58.858715,-31.375385 59.340264,-31.231108 60.385834,-31.04872 60.73138,-31.04872 61.67037,-30.83092 62.066711,-31.54705 62.738443,-32.17761 63.146677,-32.553905 63.546279,-33.14368 63.963141,-33.3065 64.38,-33.469316 64.64284,-33.3065 64.982689,-33.3065 65.947378,-33.498061 66.182543,-33.118458 66.734199,-32.47234 66.978184,-32.194286 67.112516,-31.771294 67.466161,-31.638183 68.208037,-30.916685 68.999405,-31.550483 69.761307,-31.375126 70.04679,-31.298606 70.034172,-30.601378 70.250019,-30.43581 70.465869,-30.270242 71.037493,-30.244387 71.27383,-29.496495 71.510166,-28.748605 71.435297,-28.062505 71.808926,-27.803165 72.182555,-27.543825 72.340315,-27.830365 72.760672,-27.851965 73.181029,-27.873565 73.389266,-28.009665 74.02664,-28.095835 74.664013,-28.182035 75.127616,-28.440725 75.469746,-28.290925 75.773744,-27.923215 76.355666,-27.239395 76.454771,-26.864515 76.533661,-26.538475 76.258932,-25.629965 76.203345,-25.224435 76.350554,-24.504215 77.684136,-24.111815 78.049505,-23.796545 78.661555,-23.259475 78.933591,-22.130585 78.603339,-21.800325 77.979102,-21.422335 78.440387,-20.916235 78.652409,-20.262215 78.819917,-19.728715 79.136588,-18.933645 79.264821,-18.786185 79.527465,-18.303805 79.523602,-17.606085 79.497972,-17.234345 78.992652,-16.992885 78.357962,-16.471385 77.901288,-16.408665 77.095701,-16.330465 76.247412,-17.155725 75.530617,-17.010415 75.221985,-16.933715 75.191958,-16.703925 75.022627,-16.550685 74.390082,-15.818015 73.695763,-16.082825 73.12575,-16.080975 72.012677,-16.072975 70.210579,-15.074705 69.760824,-14.215015 69.392471,-13.244365 69.164768,-13.124155 68.631934,-13.037055 68.174914,-12.957555 67.362416,-11.904145 67.362416,-11.388805 67.521224,-10.609395 67.071427,-9.9579552 66.515749,-9.5552252 66.141805,-9.2787552 65.669082,-9.2768052 65.669082,-9.0117052 64.960499,-8.1549552 64.293535,-7.0570152 64.214467,-6.9134752 63.985393,-6.5269952 63.516671,-6.2567152 63.449996,-5.9283352 62.685342,-5.1264652 62.726267,-5.4227352 61.848922,-4.9431852 61.334887,-4.8961852 60.556666,-4.3702252 60.306862,-4.0965152 60.128766,-3.6255052 59.641268,-2.8366152 60.05804,-2.4588252 60.259763,-2.3315852 60.243711,-2.1631252 60.514772,-2.1707252 60.785832,-2.1787252 61.150192,-2.3815052 61.541268,-2.6599752 61.932343,-2.9384452 62.701563,-3.0951452 62.918977,-3.0522952 63.733065,-3.0961952 63.380979,-2.5805852 63.319334,-1.9329452 63.288694,-1.5451052 62.971536,-1.1372152 63.086389,-0.9106652 63.420188,-0.6668252 63.683146,-0.3641152 63.693529,0.1604548 63.828352,0.9142648 63.562605,0.9153148 63.00513,1.1180648 62.701087,1.2336648 62.144039,1.7024848 62.007426,1.9577448 61.792291,2.6125448 61.549507,2.5398448 61.073045,2.5313848 60.721821,2.5293848 60.260316,2.4083948 60.030965,2.2633548 Z"
       style="display:inline;opacity:1;fill:#ffffff;fill-opacity:1;stroke:#000000;stroke-width:0.49999994;stroke-linejoin:round;stroke-miterlimit:4;stroke-dasharray:none;stroke-opacity:1" />
  </g>
</svg>
