<?xml version="1.0" encoding="UTF-8" standalone="no"?>
<svg
   xmlns:dc="http://purl.org/dc/elements/1.1/"
   xmlns:cc="http://creativecommons.org/ns#"
   xmlns:rdf="http://www.w3.org/1999/02/22-rdf-syntax-ns#"
   xmlns:svg="http://www.w3.org/2000/svg"
   xmlns="http://www.w3.org/2000/svg"
   id="svg1093"
   version="1.1"
   viewBox="0 0 286.91275 144.59052"
   height="144.59052mm"
   width="286.91275mm">
  <defs
     id="defs1087">
    <clipPath
       id="p711d462d76-4-3">
      <rect
         height="295.20001"
         width="575.28003"
         x="115.056"
         y="39.360001"
         id="rect21264-8"
         style="stroke-linecap:butt;stroke-linejoin:round" />
    </clipPath>
    <clipPath
       id="clipPath880">
      <rect
         height="295.20001"
         width="575.28003"
         x="115.056"
         y="39.360001"
         id="rect878"
         style="stroke-linecap:butt;stroke-linejoin:round" />
    </clipPath>
    <clipPath
       id="clipPath884">
      <rect
         height="295.20001"
         width="575.28003"
         x="115.056"
         y="39.360001"
         id="rect882"
         style="stroke-linecap:butt;stroke-linejoin:round" />
    </clipPath>
    <clipPath
       id="clipPath888">
      <rect
         height="295.20001"
         width="575.28003"
         x="115.056"
         y="39.360001"
         id="rect886"
         style="stroke-linecap:butt;stroke-linejoin:round" />
    </clipPath>
    <clipPath
       id="clipPath892">
      <rect
         height="295.20001"
         width="575.28003"
         x="115.056"
         y="39.360001"
         id="rect890"
         style="stroke-linecap:butt;stroke-linejoin:round" />
    </clipPath>
    <clipPath
       id="clipPath896">
      <rect
         height="295.20001"
         width="575.28003"
         x="115.056"
         y="39.360001"
         id="rect894"
         style="stroke-linecap:butt;stroke-linejoin:round" />
    </clipPath>
    <clipPath
       id="clipPath900">
      <rect
         height="295.20001"
         width="575.28003"
         x="115.056"
         y="39.360001"
         id="rect898"
         style="stroke-linecap:butt;stroke-linejoin:round" />
    </clipPath>
    <clipPath
       id="clipPath904">
      <rect
         height="295.20001"
         width="575.28003"
         x="115.056"
         y="39.360001"
         id="rect902"
         style="stroke-linecap:butt;stroke-linejoin:round" />
    </clipPath>
    <clipPath
       id="clipPath908">
      <rect
         height="295.20001"
         width="575.28003"
         x="115.056"
         y="39.360001"
         id="rect906"
         style="stroke-linecap:butt;stroke-linejoin:round" />
    </clipPath>
    <clipPath
       id="clipPath912">
      <rect
         height="295.20001"
         width="575.28003"
         x="115.056"
         y="39.360001"
         id="rect910"
         style="stroke-linecap:butt;stroke-linejoin:round" />
    </clipPath>
    <clipPath
       id="clipPath916">
      <rect
         height="295.20001"
         width="575.28003"
         x="115.056"
         y="39.360001"
         id="rect914"
         style="stroke-linecap:butt;stroke-linejoin:round" />
    </clipPath>
    <clipPath
       id="clipPath920">
      <rect
         height="295.20001"
         width="575.28003"
         x="115.056"
         y="39.360001"
         id="rect918"
         style="stroke-linecap:butt;stroke-linejoin:round" />
    </clipPath>
    <clipPath
       id="clipPath924">
      <rect
         height="295.20001"
         width="575.28003"
         x="115.056"
         y="39.360001"
         id="rect922"
         style="stroke-linecap:butt;stroke-linejoin:round" />
    </clipPath>
    <clipPath
       id="clipPath928">
      <rect
         height="295.20001"
         width="575.28003"
         x="115.056"
         y="39.360001"
         id="rect926"
         style="stroke-linecap:butt;stroke-linejoin:round" />
    </clipPath>
    <clipPath
       id="clipPath932">
      <rect
         height="295.20001"
         width="575.28003"
         x="115.056"
         y="39.360001"
         id="rect930"
         style="stroke-linecap:butt;stroke-linejoin:round" />
    </clipPath>
    <clipPath
       id="clipPath936">
      <rect
         height="295.20001"
         width="575.28003"
         x="115.056"
         y="39.360001"
         id="rect934"
         style="stroke-linecap:butt;stroke-linejoin:round" />
    </clipPath>
    <clipPath
       id="clipPath940">
      <rect
         height="295.20001"
         width="575.28003"
         x="115.056"
         y="39.360001"
         id="rect938"
         style="stroke-linecap:butt;stroke-linejoin:round" />
    </clipPath>
    <clipPath
       id="clipPath944">
      <rect
         height="295.20001"
         width="575.28003"
         x="115.056"
         y="39.360001"
         id="rect942"
         style="stroke-linecap:butt;stroke-linejoin:round" />
    </clipPath>
    <clipPath
       id="clipPath948">
      <rect
         height="295.20001"
         width="575.28003"
         x="115.056"
         y="39.360001"
         id="rect946"
         style="stroke-linecap:butt;stroke-linejoin:round" />
    </clipPath>
    <clipPath
       id="clipPath952">
      <rect
         height="295.20001"
         width="575.28003"
         x="115.056"
         y="39.360001"
         id="rect950"
         style="stroke-linecap:butt;stroke-linejoin:round" />
    </clipPath>
    <clipPath
       id="clipPath956">
      <rect
         height="295.20001"
         width="575.28003"
         x="115.056"
         y="39.360001"
         id="rect954"
         style="stroke-linecap:butt;stroke-linejoin:round" />
    </clipPath>
    <clipPath
       id="clipPath960">
      <rect
         height="295.20001"
         width="575.28003"
         x="115.056"
         y="39.360001"
         id="rect958"
         style="stroke-linecap:butt;stroke-linejoin:round" />
    </clipPath>
    <clipPath
       id="clipPath964">
      <rect
         height="295.20001"
         width="575.28003"
         x="115.056"
         y="39.360001"
         id="rect962"
         style="stroke-linecap:butt;stroke-linejoin:round" />
    </clipPath>
    <clipPath
       id="clipPath968">
      <rect
         height="295.20001"
         width="575.28003"
         x="115.056"
         y="39.360001"
         id="rect966"
         style="stroke-linecap:butt;stroke-linejoin:round" />
    </clipPath>
    <clipPath
       id="clipPath972">
      <rect
         height="295.20001"
         width="575.28003"
         x="115.056"
         y="39.360001"
         id="rect970"
         style="stroke-linecap:butt;stroke-linejoin:round" />
    </clipPath>
  </defs>
  <metadata
     id="metadata1090">
    <rdf:RDF>
      <cc:Work
         rdf:about="">
        <dc:format>image/svg+xml</dc:format>
        <dc:type
           rdf:resource="http://purl.org/dc/dcmitype/StillImage" />
        <dc:title></dc:title>
      </cc:Work>
    </rdf:RDF>
  </metadata>
  <g
     transform="translate(3.6051771,129.83692)"
     id="layer1">
    <path
       id="path3165"
       d="M 204.16963,11.121335 C 204.16963,11.038735 203.95796,10.548715 203.95796,10.264215 203.95796,9.9797148 203.82258,9.8935948 203.95796,9.6200648 204.09335,9.3465248 204.48495,9.2181048 204.90182,8.9001448 205.3187,8.5821748 205.27886,7.6157948 205.81905,7.6114648 206.35924,7.6074648 206.54945,7.5178648 206.78341,6.9044848 207.01736,6.2911248 208.22521,6.4011848 208.23306,6.0635648 208.24106,5.7259348 207.99834,5.3503348 207.88099,4.9937248 207.76363,4.6371048 207.45911,4.2170448 207.52891,3.9238848 207.59871,3.6307148 207.85034,3.6024448 208.01106,3.4417348 208.17178,3.2810148 208.18115,3.0818248 208.49321,2.9595848 208.80527,2.8373448 209.37855,2.9938848 209.82123,3.0109848 210.2639,3.0280848 210.7472,3.1688548 211.14925,3.0623848 211.5513,2.9559148 211.80956,2.6516748 212.13972,2.4463148 212.46987,2.2409548 212.6945,1.9546848 213.13018,1.8302348 213.56587,1.7057948 213.60055,1.2657948 214.11796,1.2657948 215.00953,1.4552648 215.43004,0.7414948 216.41834,0.5347648 216.61897,0.2254548 217.15492,0.0721448 217.7376,-0.2938052 218.32027,-0.6597552 219.38176,-1.1254152 219.63877,-1.1277352 220.11657,-1.1227352 221.12646,-1.1841352 221.42887,-0.8268552 221.64345,-0.5366352 222.34735,-0.6244352 222.63704,-0.5206152 223.35382,-0.5435152 223.86352,-0.7864152 223.95686,-0.8938152 224.38419,-1.3930552 224.59671,-1.9215252 224.92439,-2.0241552 225.25207,-2.1267852 224.95269,-2.0171552 225.47813,-1.8793452 226.00358,-1.7419352 227.37709,-2.1337452 228.54925,-3.4062352 229.7214,-4.6787152 230.34033,-4.6950852 231.08773,-3.6841752 231.83512,-2.6732752 232.2331,-2.6466352 232.47283,-3.2771752 232.71256,-3.9077252 232.56043,-4.4023852 232.73066,-4.5197652 233.60309,-4.8074652 233.58543,-4.5875652 234.40502,-4.4398652 234.66373,-4.3951652 235.07938,-4.7598752 235.41656,-4.9198752 235.75375,-5.0798852 236.14743,-4.8163652 236.42811,-4.8354752 236.8626,-4.8093752 237.22074,-4.4786852 237.51145,-4.4916352 237.83817,-4.5113352 237.78486,-4.6161852 238.78144,-5.0701852 239.77802,-5.5241852 241.20806,-5.8674952 241.87311,-5.1325852 242.53816,-4.3977152 241.96861,-3.4820952 241.07018,-2.7310752 240.41129,-2.1822352 239.59061,-1.8307052 239.80018,-1.1190952 239.80018,-0.8759952 239.46471,-0.2332152 239.19934,0.0321548 238.93396,0.2975248 238.98801,0.4949348 238.59849,0.6329948 238.20898,0.7710548 237.51785,0.5200448 236.97752,0.4635748 236.4372,0.4070748 235.97418,0.2283048 235.35655,0.2941448 234.73892,0.3599448 234.24392,0.6585948 233.36377,0.9468848 232.48362,1.2351748 230.98082,1.8552648 230.67219,2.0574948 230.36355,2.2597148 230.1082,2.2203848 229.97338,2.5153648 229.83856,2.8103448 230.07178,3.2491348 230.12101,3.6160248 230.17021,3.9829148 230.39684,4.4243248 230.26864,4.7166848 230.14045,5.0090548 229.90056,4.9744948 229.60939,5.1784448 229.31823,5.3823848 228.50216,5.6422248 227.95461,5.6445148 227.40706,5.6465148 226.17596,5.7873148 226.00299,5.8968548 225.83001,6.0064048 225.19669,5.8800548 225.0469,6.1448748 224.89711,6.4097048 225.0258,6.4881348 225.0152,6.9419948 225.0046,7.3958448 226.30376,8.0000248 226.1124,8.3035448 225.92103,8.6070648 225.71846,9.0675948 225.40684,9.2254848 225.09522,9.3833848 224.14978,9.5867148 223.71351,9.5896948 223.27724,9.5926948 223.05545,9.1855548 222.72573,9.0319648 222.396,8.8783648 222.21747,8.4187848 221.96334,8.1121948 221.70921,7.8056048 221.54982,7.8145748 221.20095,7.7568748 220.85208,7.6991748 220.75996,8.0277848 220.41112,8.2420848 220.06227,8.4563748 219.25507,8.9203248 218.96538,9.0730248 218.67568,9.2257148 218.54036,9.4272048 218.30946,9.4187548 218.07857,9.4107548 217.94483,9.1910348 217.76252,9.0771748 217.5802,8.9633248 217.45276,8.7733048 217.21558,8.7356048 216.9784,8.6979048 216.78415,8.8425548 216.44288,8.9271548 216.1016,9.0117548 215.4897,9.2375948 214.59878,9.8244948 213.70786,10.411395 211.7032,11.100925 209.03795,10.831675 206.3727,10.562435 205.91234,11.014155 205.36906,11.127755 204.82579,11.241345 204.16962,11.203855 204.16962,11.121755 V 11.121735 Z"
       style="display:inline;opacity:1;fill:#ffffff;fill-opacity:1;stroke:#000000;stroke-width:0.49999994;stroke-linejoin:round;stroke-miterlimit:4;stroke-dasharray:none;stroke-opacity:1" />
  </g>
</svg>
