<?xml version="1.0" encoding="UTF-8" standalone="no"?>
<svg
   xmlns:dc="http://purl.org/dc/elements/1.1/"
   xmlns:cc="http://creativecommons.org/ns#"
   xmlns:rdf="http://www.w3.org/1999/02/22-rdf-syntax-ns#"
   xmlns:svg="http://www.w3.org/2000/svg"
   xmlns="http://www.w3.org/2000/svg"
   id="svg1093"
   version="1.1"
   viewBox="0 0 286.91275 144.59052"
   height="144.59052mm"
   width="286.91275mm">
  <defs
     id="defs1087">
    <clipPath
       id="p711d462d76-4-3">
      <rect
         height="295.20001"
         width="575.28003"
         x="115.056"
         y="39.360001"
         id="rect21264-8"
         style="stroke-linecap:butt;stroke-linejoin:round" />
    </clipPath>
    <clipPath
       id="clipPath880">
      <rect
         height="295.20001"
         width="575.28003"
         x="115.056"
         y="39.360001"
         id="rect878"
         style="stroke-linecap:butt;stroke-linejoin:round" />
    </clipPath>
    <clipPath
       id="clipPath884">
      <rect
         height="295.20001"
         width="575.28003"
         x="115.056"
         y="39.360001"
         id="rect882"
         style="stroke-linecap:butt;stroke-linejoin:round" />
    </clipPath>
    <clipPath
       id="clipPath888">
      <rect
         height="295.20001"
         width="575.28003"
         x="115.056"
         y="39.360001"
         id="rect886"
         style="stroke-linecap:butt;stroke-linejoin:round" />
    </clipPath>
    <clipPath
       id="clipPath892">
      <rect
         height="295.20001"
         width="575.28003"
         x="115.056"
         y="39.360001"
         id="rect890"
         style="stroke-linecap:butt;stroke-linejoin:round" />
    </clipPath>
    <clipPath
       id="clipPath896">
      <rect
         height="295.20001"
         width="575.28003"
         x="115.056"
         y="39.360001"
         id="rect894"
         style="stroke-linecap:butt;stroke-linejoin:round" />
    </clipPath>
    <clipPath
       id="clipPath900">
      <rect
         height="295.20001"
         width="575.28003"
         x="115.056"
         y="39.360001"
         id="rect898"
         style="stroke-linecap:butt;stroke-linejoin:round" />
    </clipPath>
    <clipPath
       id="clipPath904">
      <rect
         height="295.20001"
         width="575.28003"
         x="115.056"
         y="39.360001"
         id="rect902"
         style="stroke-linecap:butt;stroke-linejoin:round" />
    </clipPath>
    <clipPath
       id="clipPath908">
      <rect
         height="295.20001"
         width="575.28003"
         x="115.056"
         y="39.360001"
         id="rect906"
         style="stroke-linecap:butt;stroke-linejoin:round" />
    </clipPath>
    <clipPath
       id="clipPath912">
      <rect
         height="295.20001"
         width="575.28003"
         x="115.056"
         y="39.360001"
         id="rect910"
         style="stroke-linecap:butt;stroke-linejoin:round" />
    </clipPath>
    <clipPath
       id="clipPath916">
      <rect
         height="295.20001"
         width="575.28003"
         x="115.056"
         y="39.360001"
         id="rect914"
         style="stroke-linecap:butt;stroke-linejoin:round" />
    </clipPath>
    <clipPath
       id="clipPath920">
      <rect
         height="295.20001"
         width="575.28003"
         x="115.056"
         y="39.360001"
         id="rect918"
         style="stroke-linecap:butt;stroke-linejoin:round" />
    </clipPath>
    <clipPath
       id="clipPath924">
      <rect
         height="295.20001"
         width="575.28003"
         x="115.056"
         y="39.360001"
         id="rect922"
         style="stroke-linecap:butt;stroke-linejoin:round" />
    </clipPath>
    <clipPath
       id="clipPath928">
      <rect
         height="295.20001"
         width="575.28003"
         x="115.056"
         y="39.360001"
         id="rect926"
         style="stroke-linecap:butt;stroke-linejoin:round" />
    </clipPath>
    <clipPath
       id="clipPath932">
      <rect
         height="295.20001"
         width="575.28003"
         x="115.056"
         y="39.360001"
         id="rect930"
         style="stroke-linecap:butt;stroke-linejoin:round" />
    </clipPath>
    <clipPath
       id="clipPath936">
      <rect
         height="295.20001"
         width="575.28003"
         x="115.056"
         y="39.360001"
         id="rect934"
         style="stroke-linecap:butt;stroke-linejoin:round" />
    </clipPath>
    <clipPath
       id="clipPath940">
      <rect
         height="295.20001"
         width="575.28003"
         x="115.056"
         y="39.360001"
         id="rect938"
         style="stroke-linecap:butt;stroke-linejoin:round" />
    </clipPath>
    <clipPath
       id="clipPath944">
      <rect
         height="295.20001"
         width="575.28003"
         x="115.056"
         y="39.360001"
         id="rect942"
         style="stroke-linecap:butt;stroke-linejoin:round" />
    </clipPath>
    <clipPath
       id="clipPath948">
      <rect
         height="295.20001"
         width="575.28003"
         x="115.056"
         y="39.360001"
         id="rect946"
         style="stroke-linecap:butt;stroke-linejoin:round" />
    </clipPath>
    <clipPath
       id="clipPath952">
      <rect
         height="295.20001"
         width="575.28003"
         x="115.056"
         y="39.360001"
         id="rect950"
         style="stroke-linecap:butt;stroke-linejoin:round" />
    </clipPath>
    <clipPath
       id="clipPath956">
      <rect
         height="295.20001"
         width="575.28003"
         x="115.056"
         y="39.360001"
         id="rect954"
         style="stroke-linecap:butt;stroke-linejoin:round" />
    </clipPath>
    <clipPath
       id="clipPath960">
      <rect
         height="295.20001"
         width="575.28003"
         x="115.056"
         y="39.360001"
         id="rect958"
         style="stroke-linecap:butt;stroke-linejoin:round" />
    </clipPath>
    <clipPath
       id="clipPath964">
      <rect
         height="295.20001"
         width="575.28003"
         x="115.056"
         y="39.360001"
         id="rect962"
         style="stroke-linecap:butt;stroke-linejoin:round" />
    </clipPath>
    <clipPath
       id="clipPath968">
      <rect
         height="295.20001"
         width="575.28003"
         x="115.056"
         y="39.360001"
         id="rect966"
         style="stroke-linecap:butt;stroke-linejoin:round" />
    </clipPath>
    <clipPath
       id="clipPath972">
      <rect
         height="295.20001"
         width="575.28003"
         x="115.056"
         y="39.360001"
         id="rect970"
         style="stroke-linecap:butt;stroke-linejoin:round" />
    </clipPath>
  </defs>
  <metadata
     id="metadata1090">
    <rdf:RDF>
      <cc:Work
         rdf:about="">
        <dc:format>image/svg+xml</dc:format>
        <dc:type
           rdf:resource="http://purl.org/dc/dcmitype/StillImage" />
        <dc:title></dc:title>
      </cc:Work>
    </rdf:RDF>
  </metadata>
  <g
     transform="translate(3.6051771,129.83692)"
     id="layer1">
    <path
       id="path3165"
       d="M 96.299651,-21.160425 C 95.808494,-21.703145 95.602254,-21.735315 95.385772,-21.735315 95.169287,-21.735315 94.522878,-21.977995 94.151652,-22.169965 93.391626,-22.753045 93.160589,-22.531645 92.451379,-22.099365 91.844398,-21.659335 91.516106,-21.373525 91.200175,-22.127065 90.1127,-23.770465 90.341036,-23.567675 88.719042,-22.598145 88.536953,-22.607145 87.601701,-23.041525 86.979727,-23.379455 86.357752,-23.717385 85.783866,-23.851585 85.571479,-24.144575 85.332621,-24.760315 85.195856,-25.918055 84.455387,-26.289645 84.020719,-26.467235 83.268411,-26.207345 82.329458,-26.142195 81.390504,-26.077095 79.872479,-26.460885 79.610602,-26.383115 78.549512,-25.852235 78.084284,-27.456995 78.086861,-28.067395 78.086861,-28.377245 78.83823,-28.786135 78.735974,-29.081535 78.328352,-29.527375 77.347904,-30.216707 76.917115,-30.484052 76.614339,-30.662032 76.152659,-30.606292 75.770432,-30.667411 74.782282,-30.628271 74.323862,-31.103508 73.674193,-31.684496 72.68358,-32.271244 72.710348,-32.738635 72.724641,-33.727714 72.882182,-34.588134 72.653771,-34.472159 72.22947,-34.984276 72.010769,-35.254363 71.440732,-35.756833 70.348344,-36.356101 69.255956,-36.955369 68.499232,-37.939764 68.2159,-38.739187 68.012179,-39.7151 67.880575,-40.660763 66.966553,-40.644187 65.956443,-40.480799 65.221526,-40.335535 64.872839,-40.785297 64.444566,-41.329762 64.004191,-40.888903 63.331149,-40.359487 62.658105,-39.830072 62.124787,-39.695441 61.740622,-39.618606 60.636543,-39.144039 60.671886,-39.852048 60.281731,-40.776381 59.907727,-41.780922 59.917492,-42.208811 59.082531,-41.908557 58.813063,-41.820417 57.901407,-41.633448 57.449711,-41.573679 56.998014,-41.513909 56.788424,-41.820313 56.427001,-42.002804 56.065575,-42.185295 55.976936,-42.254235 55.751908,-42.662172 55.526878,-43.070109 55.413596,-43.556916 55.076819,-43.885981 54.740039,-44.215046 55.259521,-43.790641 53.811285,-44.546323 52.363048,-45.302002 51.192061,-46.847867 52.404641,-47.744368 53.617224,-48.640866 53.591514,-48.997713 52.686864,-49.816408 51.782214,-50.635105 51.826193,-51.650854 52.849863,-51.650854 54.118966,-51.727834 55.029969,-54.186565 53.666338,-53.623251 53.058884,-53.392299 50.707106,-53.40488 50.559987,-53.642911 50.058988,-54.331642 49.256321,-53.435131 48.68956,-53.571391 48.402868,-53.650421 48.241906,-53.991938 48.018082,-54.20221 47.210719,-55.252394 46.903787,-54.453649 46.338028,-53.947485 45.611697,-53.309757 45.052042,-53.660912 44.239589,-53.944085 43.427138,-54.227308 43.049136,-54.284149 42.763642,-54.261836 39.991917,-53.861062 40.301676,-54.267336 40.34302,-55.552696 39.802246,-56.489046 40.133239,-56.512123 39.746127,-56.709613 39.359013,-56.907104 38.235529,-57.031849 38.02034,-57.302087 37.587514,-58.099946 37.649982,-58.344868 38.209345,-59.129667 38.421226,-59.260734 38.982381,-59.779775 39.733105,-60.351174 40.483828,-60.922576 41.680197,-61.203148 41.680197,-62.006884 41.680197,-62.810622 41.048748,-64.493314 40.639686,-64.95939 40.070541,-65.414828 40.242279,-65.646841 40.319794,-66.370501 41.208035,-66.573571 41.257671,-67.768535 42.514074,-67.724665 43.189431,-68.164563 43.664115,-69.158484 43.655754,-69.861106 43.781563,-70.768482 43.677214,-70.866494 42.934338,-71.130154 42.299515,-71.531839 42.016726,-71.312621 41.443953,-71.006784 40.922883,-70.661955 40.639953,-69.938804 40.175014,-70.32449 39.685091,-70.767418 39.187338,-71.091683 38.582236,-70.984106 38.217966,-70.922566 37.754664,-70.669377 37.489427,-70.799475 37.224188,-70.929655 37.280473,-71.189995 37.175994,-71.385215 36.910879,-72.156525 36.532035,-71.974368 36.060381,-71.97087 35.45579,-71.97087 34.565541,-71.037266 34.246392,-70.106767 34.034072,-69.121572 33.899174,-69.00701 33.118119,-68.639358 32.147458,-68.328042 32.362705,-67.919946 32.366867,-67.355248 32.366867,-66.60422 31.449781,-65.761983 30.610102,-65.761983 29.532036,-65.884247 29.514029,-65.742373 29.277054,-65.094915 29.104305,-64.640554 28.161711,-64.068649 27.593241,-64.068649 27.024765,-64.068649 26.592595,-63.438354 26.191912,-62.93976 25.611586,-61.929578 25.232022,-61.797916 24.336905,-61.81087 23.918287,-61.81087 22.739605,-62.157551 22.225828,-62.431789 21.712051,-62.706027 21.502812,-63.002085 21.062562,-63.052705 20.622312,-63.103325 20.199383,-62.821838 19.767792,-62.706408 19.336201,-62.590975 18.767496,-62.295589 18.473023,-62.360108 17.995027,-62.612452 17.640752,-63.244295 17.399128,-63.810474 16.896512,-64.554641 17.146693,-64.994331 17.405728,-65.751913 17.525577,-66.115059 17.147386,-66.390601 17.200831,-66.84135 17.254271,-67.292105 17.113991,-67.888574 17.070565,-68.412184 17.003225,-69.133655 17.056425,-70.383087 16.719307,-70.710935 15.908163,-71.242522 16.506139,-72.09823 16.663427,-72.828882 16.736357,-73.193515 16.704717,-73.730571 17.243258,-74.513465 18.467234,-76.093062 18.103876,-76.360493 17.5559,-77.501966 17.205887,-78.239563 17.846326,-79.960535 18.326269,-80.19562 18.806213,-80.430708 18.531468,-81.139659 18.749603,-81.248572 19.41458,-81.421432 19.239058,-81.775953 19.21228,-82.306905 19.19848,-82.665426 19.536194,-83.053686 19.370613,-83.448799 19.205032,-83.843912 19.52209,-84.087966 19.560157,-84.343398 19.773502,-84.755105 19.761414,-85.219822 20.259319,-85.235311 20.54718,-85.235311 20.834897,-85.314971 21.245,-85.940867 22.622033,-87.14828 23.563444,-85.274591 25.209599,-85.604016 25.315716,-85.710132 25.806073,-86.848949 25.609411,-87.444849 25.412746,-88.040746 23.61544,-87.695049 23.66048,-87.928915 23.70552,-88.162783 24.710764,-88.840201 24.891345,-89.022869 25.071923,-89.205537 25.54575,-89.156708 25.872952,-89.223629 26.200154,-89.290549 26.568179,-89.247869 26.854564,-89.424387 27.140949,-89.600915 27.206031,-89.870073 27.484061,-90.22263 27.762088,-90.575185 28.528575,-91.532982 28.856873,-91.938088 29.18517,-92.343197 29.283355,-92.70426 29.600193,-92.855311 30.206946,-92.883451 30.887317,-92.948051 31.451043,-92.855311 32.759186,-92.805381 33.151682,-92.741783 33.962164,-93.419754 34.688141,-94.282645 35.043654,-94.27938 36.035712,-94.266421 37.056585,-94.055172 36.86698,-94.504316 37.544816,-95.113088 37.86625,-95.395311 38.737719,-95.268795 39.07356,-95.395311 39.647002,-95.402611 40.318228,-95.501395 40.813629,-95.395311 41.12081,-94.949879 41.28414,-94.463639 41.83818,-94.266421 42.069394,-94.266421 42.400915,-93.892028 42.513516,-93.595864 42.637174,-92.721657 43.393716,-92.616657 44.063551,-92.298368 44.635551,-92.021468 45.990728,-91.586644 46.490738,-91.519578 47.485667,-91.557608 47.711388,-91.265123 48.199658,-90.557661 48.391933,-90.287635 48.656786,-90.142369 48.776481,-89.747586 48.896171,-89.352807 48.525902,-88.921237 48.506265,-88.26756 48.486655,-87.613883 48.68424,-87.400992 48.711661,-86.999201 48.610754,-86.398636 49.04992,-86.072987 49.604079,-86.081977 50.587906,-86.261286 50.888994,-85.670421 51.319125,-85.235311 51.894551,-84.659884 52.90832,-84.344305 53.11015,-84.670867 53.311974,-84.997429 54.110415,-84.953088 54.763695,-84.953088 55.416973,-84.953088 55.943157,-84.828964 56.242817,-84.953088 56.595752,-85.112155 56.648584,-85.546792 56.903198,-85.613472 57.700978,-85.458712 59.846159,-84.636826 60.531734,-85.873764 60.817957,-86.470949 60.642822,-86.483197 60.90206,-86.646421 61.161296,-86.809648 61.556216,-86.646421 61.883294,-86.646421 62.210375,-86.646421 62.66695,-86.510613 62.86453,-86.646421 63.062111,-86.782229 62.956,-86.884787 63.028358,-87.073347 63.100718,-87.261908 63.041798,-87.681476 62.857998,-87.902948 62.590351,-88.503463 62.466423,-89.666378 62.705704,-89.891977 63.050202,-90.201175 63.745643,-91.023831 65.249159,-91.033284 66.752675,-91.042684 66.797927,-91.058894 66.797927,-91.756554 67.078208,-92.135552 67.445079,-92.127553 68.113152,-92.731396 68.363414,-92.963327 68.487635,-93.307584 68.863934,-93.427197 69.240232,-93.546805 69.753124,-93.309243 70.197719,-93.250262 71.204861,-92.951278 71.561906,-93.086321 72.12087,-93.662697 72.38117,-93.923 72.794023,-94.604543 72.89643,-95.035353 73.114618,-95.578085 73.480955,-96.584534 73.940965,-96.806421 74.179556,-96.915181 74.553597,-96.806421 74.859911,-96.806421 75.166227,-96.806421 75.468534,-96.950868 75.778861,-96.806421 76.089186,-96.661974 76.265957,-96.227542 76.509506,-95.938101 76.753055,-95.648657 77.13352,-95.362119 77.240147,-95.069781 77.308537,-94.455492 77.244647,-94.208686 76.798714,-93.681972 76.603745,-93.466535 76.434592,-92.903716 76.357275,-92.629748 76.526844,-92.010607 76.435555,-91.06273 76.74454,-90.56544 77.239875,-90.138754 77.372876,-90.453201 77.52237,-89.709314 77.52237,-89.470337 77.637914,-89.334172 77.52237,-89.168234 77.128006,-88.861309 77.022628,-88.394555 76.826014,-88.137388 76.618501,-87.850556 76.810874,-87.718587 76.773574,-86.686347 76.736264,-85.654109 77.133313,-85.213922 77.663485,-85.799754 78.193659,-86.385589 78.279387,-86.364201 78.407826,-86.364201 78.536266,-86.364201 79.344994,-87.038407 79.901603,-87.571732 80.458212,-88.105058 80.726375,-88.531964 81.161853,-88.779264 81.597331,-89.026568 81.839753,-88.966079 82.376005,-89.113856 82.912254,-89.261634 84.084462,-89.75609 84.475487,-89.999451 84.866509,-90.24281 85.159734,-90.229475 85.36082,-90.550451 85.561906,-90.871431 85.43294,-91.233285 85.489995,-91.773437 85.547045,-92.313587 85.511905,-93.210323 85.380772,-93.471758 85.249652,-93.73319 85.14238,-94.410881 85.14238,-94.777755 85.07361,-95.391474 85.09322,-95.686056 85.594336,-95.983509 85.744989,-96.10854 85.930063,-96.061659 86.046292,-96.358601 86.353401,-97.397762 85.589176,-98.299351 86.619429,-98.716538 86.777282,-98.846202 86.806323,-99.629049 87.117944,-99.672158 87.777796,-99.669258 87.936493,-99.779356 87.915631,-100.41961 87.846501,-101.21713 88.371659,-101.25288 89.003907,-101.54449 89.335957,-101.70284 89.648321,-102.10052 90.000056,-102.01952 90.35179,-101.93852 90.441463,-101.46595 90.662165,-101.18916 90.895882,-100.71455 91.521201,-99.959527 91.462365,-100.76983 91.523355,-100.95137 91.609659,-101.23809 91.69077,-101.74207 91.77188,-102.24605 92.955761,-102.44276 93.515754,-102.14306 94.075748,-101.84336 93.895812,-101.17084 94.194932,-101.21513 94.494049,-101.25943 95.472229,-102.49242 96.062006,-103.0822 96.651783,-103.67198 95.793491,-104.94191 95.672114,-105.68988 95.550734,-106.43785 96.609473,-106.84759 96.651713,-107.17426 96.694013,-107.50092 96.888453,-107.70714 97.075723,-108.12867 97.262993,-108.5502 96.942593,-109.10525 97.100223,-109.58338 97.257843,-110.06151 97.806473,-110.60649 98.778653,-110.11961 99.750843,-109.63273 100.38239,-109.81684 100.38239,-110.31853 100.38239,-110.82022 101.7485,-111.04529 101.93615,-111.20102 102.36106,-111.7691 102.31189,-111.47813 102.96564,-111.36669 103.35533,-111.30439 103.8041,-111.07826 104.13471,-111.17974 104.46532,-111.28122 104.56766,-111.58648 104.78414,-111.78985 105.64909,-111.79185 105.78797,-111.74025 106.22409,-111.6474 106.86688,-111.49444 107.25979,-112.05119 108.0452,-112.19923 109.10191,-112.55264 109.6836,-111.78566 110.14287,-111.0205 110.36487,-110.6634 111.36813,-109.51347 112.25134,-108.65974 113.13455,-107.80602 114.11718,-107.26084 114.32285,-106.93562 114.72675,-106.43752 114.86579,-106.14532 114.60019,-105.66562 114.51699,-105.42992 113.92785,-104.61659 113.54498,-104.2089 113.16211,-103.80121 112.73024,-103.68448 112.67811,-103.28583 112.62601,-102.88718 112.8661,-102.93675 113.22147,-102.27686 113.57685,-101.61697 115.91325,-99.802285 116.8023,-99.419684 117.69135,-99.037081 117.34327,-99.373844 117.55888,-99.094088 117.77448,-98.814339 117.12252,-97.67553 117.18656,-97.248474 117.13776,-95.999111 118.162,-96.392904 119.11109,-95.888727 119.50041,-95.674385 120.08614,-95.525949 120.27906,-95.245707 120.42345,-94.63788 120.99438,-94.677343 121.33296,-94.049288 121.61017,-93.499042 122.40934,-93.576427 122.87438,-93.466467 123.37131,-93.016569 124.2354,-92.536517 124.47022,-92.093782 124.68088,-91.675259 123.99037,-90.924294 124.03266,-90.339549 124.07496,-89.754807 124.32123,-89.033952 124.15955,-88.585319 123.99787,-88.136687 124.21555,-88.054621 123.96133,-87.78927 123.19865,-87.138829 123.04832,-85.993361 123.3835,-85.386457 123.60447,-85.002919 124.37128,-84.651113 124.86517,-84.283443 125.35906,-83.915773 126.16867,-83.535178 126.34684,-83.18043 126.48164,-82.669329 126.25294,-82.551364 125.9194,-82.023092 125.73061,-81.734971 125.47971,-80.524841 125.49196,-80.241851 125.70265,-79.652436 127.55953,-80.455994 127.75795,-79.925158 127.57562,-78.45441 126.84219,-78.036445 126.62906,-77.62238 125.46934,-76.781961 125.38902,-76.105032 124.31729,-75.011663 124.41609,-73.661282 124.17152,-73.78193 123.03072,-73.894901 121.72788,-74.154145 121.81569,-73.927271 121.83128,-72.880309 121.83128,-72.385909 123.12673,-71.987629 123.94795,-71.921139 124.63079,-71.878829 125.3365,-72.080373 125.07684,-71.288266 125.24018,-70.612309 124.75413,-70.555566 124.23017,-70.269078 123.48792,-69.726917 124.38646,-68.495896 124.20377,-67.825373 123.83805,-67.133114 123.74801,-66.195354 123.50035,-65.614697 123.33107,-65.191374 122.19811,-65.212901 122.19811,-64.67989 122.22591,-63.843719 122.38304,-63.89653 121.60826,-63.080857 120.78542,-62.92892 120.52686,-63.229762 120.4219,-63.917257 120.4353,-64.712211 120.14587,-64.838849 119.54616,-65.163882 119.08376,-65.48834 118.80772,-65.664293 118.34771,-65.39467 117.68599,-65.30287 117.87422,-64.876515 117.88012,-64.378085 117.88012,-64.008343 117.72645,-63.136739 117.60488,-62.817006 117.40371,-62.143806 116.48192,-61.661505 116.10773,-61.860784 115.57041,-62.242408 114.99131,-61.719372 114.61653,-61.219455 113.58766,-59.997336 114.34916,-60.705041 113.23639,-60.217515 112.8793,-60.043075 111.6038,-60.342102 111.38901,-60.04698 111.02333,-59.477036 111.61747,-58.091222 111.2479,-57.718647 110.98725,-57.477908 110.6176,-57.679207 110.11901,-57.648007 109.62042,-57.616807 108.39099,-58.123969 107.86123,-58.054045 107.3381,-57.971315 106.36086,-57.500388 106.59123,-56.906962 107.27334,-56.302027 108.70136,-55.085711 109.65975,-55.418472 110.344,-55.882649 110.84159,-55.759043 111.21198,-55.250464 111.41481,-54.981139 110.96657,-54.662684 111.19048,-54.345216 111.41443,-54.02775 111.38447,-53.788707 111.69755,-53.626428 112.4001,-53.691068 113.64606,-53.332338 114.16985,-53.626428 114.48604,-53.822039 114.9822,-54.12336 115.1783,-54.516454 115.3744,-54.909548 116.75119,-54.328907 116.75119,-54.883344 116.75119,-55.437781 117.31003,-56.166428 118.04308,-56.166428 118.77613,-56.166428 119.409,-56.541673 119.82243,-57.369231 120.09034,-57.94447 120.64608,-57.87847 121.40786,-57.718651 121.65177,-57.488514 121.46386,-57.319672 121.49186,-56.837959 121.38323,-55.461435 121.26908,-55.710662 121.70352,-55.307095 122.39867,-54.65404 121.76952,-53.220694 120.98934,-53.424709 120.20919,-53.628724 120.10436,-53.057804 119.86231,-53.007385 119.47369,-52.628602 118.67526,-52.326016 118.44449,-51.892126 118.44149,-51.05295 117.34526,-51.200013 116.32624,-50.930969 115.52738,-50.741115 115.12661,-50.408195 114.84615,-50.153528 114.56569,-49.898861 114.33954,-49.866921 114.21115,-49.576927 114.08277,-49.28693 114.21115,-48.880168 114.21115,-48.531788 114.34511,-47.669157 114.11635,-47.403123 113.78782,-47.135317 113.42919,-46.83768 113.60472,-45.977136 114.28171,-44.915815 114.9587,-43.854492 114.84876,-43.752114 115.19893,-43.477868 115.54911,-43.20362 115.48174,-43.382328 116.1114,-43.169608 116.74107,-42.956885 118.16227,-41.446051 118.16227,-40.808159 118.16227,-40.170264 116.3601,-39.235269 115.86981,-39.23415 115.37951,-39.23305 114.68268,-38.910573 114.10592,-38.655445 113.52916,-38.400316 113.08129,-38.509742 112.80004,-38.077794 112.51879,-37.645843 112.80004,-36.967975 112.80004,-36.413067 112.91857,-35.196516 112.98861,-34.806724 112.02393,-34.377519 111.26476,-34.16826 111.22519,-33.904561 111.15022,-33.303784 110.95358,-32.020285 110.27069,-31.876312 109.25381,-32.053948 108.85333,-32.114008 107.23381,-31.808627 106.92346,-31.669676 105.13144,-29.887929 105.82292,-30.896492 103.85641,-30.76643 103.61621,-30.656753 103.6174,-30.490676 103.42833,-30.272541 103.23926,-30.054405 102.74814,-29.019765 102.5487,-28.419465 102.34927,-27.819155 102.12063,-26.875845 102.09716,-26.495825 102.01866,-25.914235 102.55044,-25.323005 102.43144,-24.824445 102.10812,-24.500415 101.78226,-23.882445 101.42367,-23.710865 100.88365,-23.606115 100.30154,-23.793865 99.817823,-23.710865 99.201873,-23.118295 98.672993,-22.309205 98.307773,-21.737265 97.758783,-20.873355 96.790663,-20.617705 96.299507,-21.160425 Z M 75.948568,-76.135676 C 76.051252,-76.44209 76.030148,-77.358863 76.256627,-77.619362 76.4831,-77.879857 76.913741,-77.947273 77.242298,-78.11123 77.570855,-78.275187 78.041263,-78.33633 78.227974,-78.603101 78.414683,-78.869875 78.292234,-79.167547 78.324354,-79.449768 78.356484,-79.731991 78.480863,-79.984107 78.420734,-80.296434 78.360614,-80.608764 78.087038,-80.916514 77.920187,-81.226553 77.753338,-81.536589 77.66312,-82.03413 77.419638,-82.156669 77.176157,-82.279209 77.037529,-82.101039 76.846473,-82.073219 76.655418,-82.045389 76.460274,-82.166539 76.273312,-81.989769 76.086347,-81.813 76.145174,-81.359608 76.081108,-81.044526 76.017038,-80.729444 76.077808,-80.4559 75.888901,-80.099281 75.700036,-79.742662 75.210443,-79.404477 74.871211,-79.057071 74.53198,-78.709668 73.998456,-78.37074 73.853523,-78.014859 73.708586,-77.658979 73.853523,-77.809587 73.853523,-77.165983 73.853523,-76.522379 74.628111,-75.065006 75.09649,-75.135065 75.564869,-75.205125 75.446462,-75.053675 75.6405,-75.216435 75.834535,-75.379191 75.845872,-75.82926 75.94856,-76.135674 Z M 84.460616,-79.763558 C 84.490386,-80.021434 84.450916,-80.430369 84.615452,-80.719768 84.780021,-81.009169 85.156499,-80.850083 85.584491,-81.176528 86.012484,-81.502974 86.666418,-82.197018 86.666418,-82.472087 86.666418,-82.747156 86.482368,-83.460478 86.630008,-84.34576 86.777648,-85.231043 87.352773,-86.369294 87.039303,-86.369294 86.725832,-86.369294 86.144413,-87.427251 85.814459,-86.928657 85.484505,-86.430063 85.136033,-85.958007 84.841565,-85.799768 84.376393,-85.243108 84.32663,-85.296805 83.763298,-85.235324 83.495555,-84.840492 83.462191,-84.138772 83.371752,-83.805587 83.285982,-83.464791 82.463358,-82.55763 82.517211,-82.102925 82.571061,-81.64822 83.295607,-81.682134 83.243214,-81.303259 83.190824,-80.92438 83.046375,-80.828048 82.890668,-80.452136 82.73496,-80.076227 82.634376,-79.350181 82.710521,-79.151757 82.991405,-78.444941 84.126968,-78.649546 84.16126,-78.965316 Z M 92.401756,-85.549535 C 93.257861,-85.78539 93.099759,-86.61764 93.208307,-87.059155 93.407006,-87.850841 92.461891,-89.192358 91.732662,-88.587153 91.003433,-87.981948 89.940195,-86.056694 89.940195,-85.812431 89.76209,-85.233607 91.050246,-85.066888 91.421861,-85.143241 91.82697,-85.220991 92.124777,-85.447835 92.401756,-85.549535 Z"
       style="display:inline;opacity:1;fill:#ffffff;fill-opacity:1;stroke:#000000;stroke-width:0.49999994;stroke-linejoin:round;stroke-miterlimit:4;stroke-dasharray:none;stroke-opacity:1" />
  </g>
</svg>
