<?xml version="1.0" encoding="UTF-8" standalone="no"?>
<svg
   xmlns:dc="http://purl.org/dc/elements/1.1/"
   xmlns:cc="http://creativecommons.org/ns#"
   xmlns:rdf="http://www.w3.org/1999/02/22-rdf-syntax-ns#"
   xmlns:svg="http://www.w3.org/2000/svg"
   xmlns="http://www.w3.org/2000/svg"
   id="svg1093"
   version="1.1"
   viewBox="0 0 286.91275 144.59052"
   height="144.59052mm"
   width="286.91275mm">
  <defs
     id="defs1087">
    <clipPath
       id="p711d462d76-4-3">
      <rect
         height="295.20001"
         width="575.28003"
         x="115.056"
         y="39.360001"
         id="rect21264-8"
         style="stroke-linecap:butt;stroke-linejoin:round" />
    </clipPath>
    <clipPath
       id="clipPath880">
      <rect
         height="295.20001"
         width="575.28003"
         x="115.056"
         y="39.360001"
         id="rect878"
         style="stroke-linecap:butt;stroke-linejoin:round" />
    </clipPath>
    <clipPath
       id="clipPath884">
      <rect
         height="295.20001"
         width="575.28003"
         x="115.056"
         y="39.360001"
         id="rect882"
         style="stroke-linecap:butt;stroke-linejoin:round" />
    </clipPath>
    <clipPath
       id="clipPath888">
      <rect
         height="295.20001"
         width="575.28003"
         x="115.056"
         y="39.360001"
         id="rect886"
         style="stroke-linecap:butt;stroke-linejoin:round" />
    </clipPath>
    <clipPath
       id="clipPath892">
      <rect
         height="295.20001"
         width="575.28003"
         x="115.056"
         y="39.360001"
         id="rect890"
         style="stroke-linecap:butt;stroke-linejoin:round" />
    </clipPath>
    <clipPath
       id="clipPath896">
      <rect
         height="295.20001"
         width="575.28003"
         x="115.056"
         y="39.360001"
         id="rect894"
         style="stroke-linecap:butt;stroke-linejoin:round" />
    </clipPath>
    <clipPath
       id="clipPath900">
      <rect
         height="295.20001"
         width="575.28003"
         x="115.056"
         y="39.360001"
         id="rect898"
         style="stroke-linecap:butt;stroke-linejoin:round" />
    </clipPath>
    <clipPath
       id="clipPath904">
      <rect
         height="295.20001"
         width="575.28003"
         x="115.056"
         y="39.360001"
         id="rect902"
         style="stroke-linecap:butt;stroke-linejoin:round" />
    </clipPath>
    <clipPath
       id="clipPath908">
      <rect
         height="295.20001"
         width="575.28003"
         x="115.056"
         y="39.360001"
         id="rect906"
         style="stroke-linecap:butt;stroke-linejoin:round" />
    </clipPath>
    <clipPath
       id="clipPath912">
      <rect
         height="295.20001"
         width="575.28003"
         x="115.056"
         y="39.360001"
         id="rect910"
         style="stroke-linecap:butt;stroke-linejoin:round" />
    </clipPath>
    <clipPath
       id="clipPath916">
      <rect
         height="295.20001"
         width="575.28003"
         x="115.056"
         y="39.360001"
         id="rect914"
         style="stroke-linecap:butt;stroke-linejoin:round" />
    </clipPath>
    <clipPath
       id="clipPath920">
      <rect
         height="295.20001"
         width="575.28003"
         x="115.056"
         y="39.360001"
         id="rect918"
         style="stroke-linecap:butt;stroke-linejoin:round" />
    </clipPath>
    <clipPath
       id="clipPath924">
      <rect
         height="295.20001"
         width="575.28003"
         x="115.056"
         y="39.360001"
         id="rect922"
         style="stroke-linecap:butt;stroke-linejoin:round" />
    </clipPath>
    <clipPath
       id="clipPath928">
      <rect
         height="295.20001"
         width="575.28003"
         x="115.056"
         y="39.360001"
         id="rect926"
         style="stroke-linecap:butt;stroke-linejoin:round" />
    </clipPath>
    <clipPath
       id="clipPath932">
      <rect
         height="295.20001"
         width="575.28003"
         x="115.056"
         y="39.360001"
         id="rect930"
         style="stroke-linecap:butt;stroke-linejoin:round" />
    </clipPath>
    <clipPath
       id="clipPath936">
      <rect
         height="295.20001"
         width="575.28003"
         x="115.056"
         y="39.360001"
         id="rect934"
         style="stroke-linecap:butt;stroke-linejoin:round" />
    </clipPath>
    <clipPath
       id="clipPath940">
      <rect
         height="295.20001"
         width="575.28003"
         x="115.056"
         y="39.360001"
         id="rect938"
         style="stroke-linecap:butt;stroke-linejoin:round" />
    </clipPath>
    <clipPath
       id="clipPath944">
      <rect
         height="295.20001"
         width="575.28003"
         x="115.056"
         y="39.360001"
         id="rect942"
         style="stroke-linecap:butt;stroke-linejoin:round" />
    </clipPath>
    <clipPath
       id="clipPath948">
      <rect
         height="295.20001"
         width="575.28003"
         x="115.056"
         y="39.360001"
         id="rect946"
         style="stroke-linecap:butt;stroke-linejoin:round" />
    </clipPath>
    <clipPath
       id="clipPath952">
      <rect
         height="295.20001"
         width="575.28003"
         x="115.056"
         y="39.360001"
         id="rect950"
         style="stroke-linecap:butt;stroke-linejoin:round" />
    </clipPath>
    <clipPath
       id="clipPath956">
      <rect
         height="295.20001"
         width="575.28003"
         x="115.056"
         y="39.360001"
         id="rect954"
         style="stroke-linecap:butt;stroke-linejoin:round" />
    </clipPath>
    <clipPath
       id="clipPath960">
      <rect
         height="295.20001"
         width="575.28003"
         x="115.056"
         y="39.360001"
         id="rect958"
         style="stroke-linecap:butt;stroke-linejoin:round" />
    </clipPath>
    <clipPath
       id="clipPath964">
      <rect
         height="295.20001"
         width="575.28003"
         x="115.056"
         y="39.360001"
         id="rect962"
         style="stroke-linecap:butt;stroke-linejoin:round" />
    </clipPath>
    <clipPath
       id="clipPath968">
      <rect
         height="295.20001"
         width="575.28003"
         x="115.056"
         y="39.360001"
         id="rect966"
         style="stroke-linecap:butt;stroke-linejoin:round" />
    </clipPath>
    <clipPath
       id="clipPath972">
      <rect
         height="295.20001"
         width="575.28003"
         x="115.056"
         y="39.360001"
         id="rect970"
         style="stroke-linecap:butt;stroke-linejoin:round" />
    </clipPath>
    <clipPath
       id="p711d462d76-4-3-6">
      <rect
         height="295.20001"
         width="575.28003"
         x="115.056"
         y="39.360001"
         id="rect21264-8-2"
         style="stroke-linecap:butt;stroke-linejoin:round" />
    </clipPath>
    <clipPath
       id="clipPath3838">
      <rect
         height="295.20001"
         width="575.28003"
         x="115.056"
         y="39.360001"
         id="rect3836"
         style="stroke-linecap:butt;stroke-linejoin:round" />
    </clipPath>
    <clipPath
       id="clipPath3842">
      <rect
         height="295.20001"
         width="575.28003"
         x="115.056"
         y="39.360001"
         id="rect3840"
         style="stroke-linecap:butt;stroke-linejoin:round" />
    </clipPath>
    <clipPath
       id="clipPath3846">
      <rect
         height="295.20001"
         width="575.28003"
         x="115.056"
         y="39.360001"
         id="rect3844"
         style="stroke-linecap:butt;stroke-linejoin:round" />
    </clipPath>
    <clipPath
       id="clipPath3850">
      <rect
         height="295.20001"
         width="575.28003"
         x="115.056"
         y="39.360001"
         id="rect3848"
         style="stroke-linecap:butt;stroke-linejoin:round" />
    </clipPath>
    <clipPath
       id="clipPath3854">
      <rect
         height="295.20001"
         width="575.28003"
         x="115.056"
         y="39.360001"
         id="rect3852"
         style="stroke-linecap:butt;stroke-linejoin:round" />
    </clipPath>
    <clipPath
       id="clipPath3858">
      <rect
         height="295.20001"
         width="575.28003"
         x="115.056"
         y="39.360001"
         id="rect3856"
         style="stroke-linecap:butt;stroke-linejoin:round" />
    </clipPath>
    <clipPath
       id="clipPath3862">
      <rect
         height="295.20001"
         width="575.28003"
         x="115.056"
         y="39.360001"
         id="rect3860"
         style="stroke-linecap:butt;stroke-linejoin:round" />
    </clipPath>
    <clipPath
       id="clipPath3866">
      <rect
         height="295.20001"
         width="575.28003"
         x="115.056"
         y="39.360001"
         id="rect3864"
         style="stroke-linecap:butt;stroke-linejoin:round" />
    </clipPath>
    <clipPath
       id="clipPath3870">
      <rect
         height="295.20001"
         width="575.28003"
         x="115.056"
         y="39.360001"
         id="rect3868"
         style="stroke-linecap:butt;stroke-linejoin:round" />
    </clipPath>
    <clipPath
       id="clipPath3874">
      <rect
         height="295.20001"
         width="575.28003"
         x="115.056"
         y="39.360001"
         id="rect3872"
         style="stroke-linecap:butt;stroke-linejoin:round" />
    </clipPath>
    <clipPath
       id="clipPath3878">
      <rect
         height="295.20001"
         width="575.28003"
         x="115.056"
         y="39.360001"
         id="rect3876"
         style="stroke-linecap:butt;stroke-linejoin:round" />
    </clipPath>
    <clipPath
       id="clipPath3882">
      <rect
         height="295.20001"
         width="575.28003"
         x="115.056"
         y="39.360001"
         id="rect3880"
         style="stroke-linecap:butt;stroke-linejoin:round" />
    </clipPath>
    <clipPath
       id="clipPath3886">
      <rect
         height="295.20001"
         width="575.28003"
         x="115.056"
         y="39.360001"
         id="rect3884"
         style="stroke-linecap:butt;stroke-linejoin:round" />
    </clipPath>
    <clipPath
       id="clipPath3890">
      <rect
         height="295.20001"
         width="575.28003"
         x="115.056"
         y="39.360001"
         id="rect3888"
         style="stroke-linecap:butt;stroke-linejoin:round" />
    </clipPath>
    <clipPath
       id="clipPath3894">
      <rect
         height="295.20001"
         width="575.28003"
         x="115.056"
         y="39.360001"
         id="rect3892"
         style="stroke-linecap:butt;stroke-linejoin:round" />
    </clipPath>
    <clipPath
       id="clipPath3898">
      <rect
         height="295.20001"
         width="575.28003"
         x="115.056"
         y="39.360001"
         id="rect3896"
         style="stroke-linecap:butt;stroke-linejoin:round" />
    </clipPath>
    <clipPath
       id="clipPath3902">
      <rect
         height="295.20001"
         width="575.28003"
         x="115.056"
         y="39.360001"
         id="rect3900"
         style="stroke-linecap:butt;stroke-linejoin:round" />
    </clipPath>
    <clipPath
       id="clipPath3906">
      <rect
         height="295.20001"
         width="575.28003"
         x="115.056"
         y="39.360001"
         id="rect3904"
         style="stroke-linecap:butt;stroke-linejoin:round" />
    </clipPath>
    <clipPath
       id="clipPath3910">
      <rect
         height="295.20001"
         width="575.28003"
         x="115.056"
         y="39.360001"
         id="rect3908"
         style="stroke-linecap:butt;stroke-linejoin:round" />
    </clipPath>
    <clipPath
       id="clipPath3914">
      <rect
         height="295.20001"
         width="575.28003"
         x="115.056"
         y="39.360001"
         id="rect3912"
         style="stroke-linecap:butt;stroke-linejoin:round" />
    </clipPath>
    <clipPath
       id="clipPath3918">
      <rect
         height="295.20001"
         width="575.28003"
         x="115.056"
         y="39.360001"
         id="rect3916"
         style="stroke-linecap:butt;stroke-linejoin:round" />
    </clipPath>
    <clipPath
       id="clipPath3922">
      <rect
         height="295.20001"
         width="575.28003"
         x="115.056"
         y="39.360001"
         id="rect3920"
         style="stroke-linecap:butt;stroke-linejoin:round" />
    </clipPath>
    <clipPath
       id="clipPath3926">
      <rect
         height="295.20001"
         width="575.28003"
         x="115.056"
         y="39.360001"
         id="rect3924"
         style="stroke-linecap:butt;stroke-linejoin:round" />
    </clipPath>
    <clipPath
       id="clipPath3930">
      <rect
         height="295.20001"
         width="575.28003"
         x="115.056"
         y="39.360001"
         id="rect3928"
         style="stroke-linecap:butt;stroke-linejoin:round" />
    </clipPath>
  </defs>
  <metadata
     id="metadata1090">
    <rdf:RDF>
      <cc:Work
         rdf:about="">
        <dc:format>image/svg+xml</dc:format>
        <dc:type
           rdf:resource="http://purl.org/dc/dcmitype/StillImage" />
        <dc:title></dc:title>
      </cc:Work>
    </rdf:RDF>
  </metadata>
  <g
     style="display:inline"
     id="g1749"
     transform="translate(3.6051771,129.83692)">
    <path
       style="display:inline;opacity:1;fill:#008000;fill-opacity:1;stroke:#000000;stroke-width:0.49999994;stroke-linejoin:round;stroke-miterlimit:4;stroke-dasharray:none;stroke-opacity:1"
       d="M -17.779284,20.801214 L -17.968272,-105.25385 M 40.813629,-95.395314 C 40.318228,-95.501399 39.647002,-95.402614 39.07356,-95.395314 C 38.737719,-95.268798 37.86625,-95.395314 37.544816,-95.113091 C 36.86698,-94.504319 37.056585,-94.055176 36.035712,-94.266424 C 35.043654,-94.279384 34.688141,-94.282643 33.962164,-93.419758 C 33.151682,-92.741787 32.759186,-92.805385 31.451043,-92.855314 C 30.887317,-92.948053 30.206946,-92.883453 29.600193,-92.855314 C 29.283355,-92.704264 29.18517,-92.3432 28.856873,-91.938091 C 28.528575,-91.532985 27.762088,-90.575188 27.484061,-90.222633 C 27.206031,-89.870076 27.140949,-89.600918 26.854564,-89.424391 C 26.568179,-89.247871 26.200154,-89.290551 25.872952,-89.223633 C 25.54575,-89.156712 25.071923,-89.205541 24.891345,-89.022872 C 24.710764,-88.840204 23.70552,-88.162786 23.66048,-87.928918 C 23.61544,-87.695053 25.412746,-88.040749 25.609411,-87.444852 C 25.806073,-86.848952 25.315716,-85.710135 25.209599,-85.604019 C 23.563444,-85.274594 22.622033,-87.148283 21.245,-85.940871 C 20.834897,-85.314972 20.54718,-85.235314 20.259319,-85.235314 C 19.761414,-85.219823 19.773502,-84.755109 19.560157,-84.343401 C 19.522087,-84.08797 19.205032,-83.843915 19.370613,-83.448802 C 19.536194,-83.05369 19.19848,-82.665429 19.21228,-82.306908 C 19.23906,-81.775956 19.41458,-81.421435 18.749603,-81.248575 C 18.531468,-81.139662 18.806213,-80.430711 18.326269,-80.195623 C 17.846326,-79.960538 17.205887,-78.239564 17.5559,-77.501969 C 18.103876,-76.360496 18.467234,-76.093066 17.243258,-74.513466 C 16.704717,-73.730575 16.736357,-73.193518 16.663427,-72.828885 C 16.506139,-72.098233 15.908163,-71.242526 16.719307,-70.710938 C 17.056425,-70.38309 17.003225,-69.133656 17.070565,-68.412185 C 17.113995,-67.888577 17.254271,-67.292109 17.200831,-66.841351 C 17.147391,-66.390604 17.525577,-66.115062 17.405728,-65.751916 C 17.146693,-64.994332 16.896512,-64.554642 17.399128,-63.810475 C 17.640752,-63.244298 17.995027,-62.612455 18.473023,-62.360111 C 18.767496,-62.29559 19.336201,-62.590976 19.767792,-62.706411 C 20.199383,-62.821841 20.622312,-63.103328 21.062562,-63.052708 C 21.502812,-63.002088 21.712051,-62.70603 22.225828,-62.431792 C 22.739605,-62.157554 23.918287,-61.810873 24.336905,-61.810873 C 25.232022,-61.797922 25.611586,-61.929581 26.191912,-62.939763 C 26.592595,-63.438357 27.024765,-64.06865 27.593241,-64.06865 C 28.161711,-64.06865 29.104305,-64.640558 29.277054,-65.094916 C 29.514029,-65.742375 29.532036,-65.88425 30.610102,-65.761986 C 31.449781,-65.761986 32.366867,-66.604221 32.366867,-67.355251 C 32.362667,-67.919949 32.147458,-68.328045 33.118119,-68.639362 C 33.899174,-69.007013 34.034072,-69.121575 34.246392,-70.10677 C 34.565541,-71.037267 35.45579,-71.970873 36.060381,-71.970873 C 36.532035,-71.974374 36.910879,-72.156526 37.175994,-71.385218 C 37.280473,-71.189998 37.224184,-70.929658 37.489427,-70.799478 C 37.754664,-70.66938 38.217966,-70.922568 38.582236,-70.984107 C 39.187338,-71.091687 39.685091,-70.767421 40.175014,-70.324493 C 40.639953,-69.938807 40.922883,-70.661958 41.443953,-71.006787 C 42.016726,-71.312624 42.299515,-71.531842 42.934339,-71.130157 C 43.677215,-70.866497 43.781564,-70.768485 43.655754,-69.86111 C 43.664155,-69.158487 43.189431,-68.164564 42.514074,-67.724668 C 41.257671,-67.768538 41.208035,-66.573574 40.319794,-66.370504 C 40.242284,-65.646842 40.070541,-65.414829 40.639686,-64.959391 C 41.048748,-64.493317 41.680197,-62.810625 41.680197,-62.006887 C 41.680197,-61.203149 40.483828,-60.922577 39.733105,-60.351175 C 38.982381,-59.779778 38.421226,-59.260737 38.209345,-59.12967 C 37.649982,-58.344871 37.587514,-58.099949 38.02034,-57.30209 C 38.235529,-57.03185 39.359013,-56.907107 39.746127,-56.709614 C 40.133239,-56.512126 39.802247,-56.489049 40.34302,-55.552697 C 40.30168,-54.267338 39.991917,-53.861065 42.763643,-54.261837 C 43.049136,-54.284149 43.427138,-54.227309 44.239589,-53.944088 C 45.052042,-53.660915 45.611697,-53.30976 46.338029,-53.947488 C 46.903787,-54.453652 47.21072,-55.252397 48.018083,-54.202213 C 48.241907,-53.991941 48.402869,-53.650422 48.689561,-53.571394 C 49.256322,-53.435133 50.058988,-54.331645 50.559988,-53.642913 C 50.707106,-53.404883 53.058884,-53.3923 53.666339,-53.623252 C 55.029969,-54.186568 54.118967,-51.727835 52.849864,-51.650857 C 51.826193,-51.650857 51.782214,-50.635106 52.686864,-49.816411 C 53.591515,-48.997716 53.617224,-48.640867 52.404641,-47.744369 C 51.192061,-46.847868 52.363051,-45.302003 53.811285,-44.546324 C 55.259522,-43.790642 54.740039,-44.215047 55.076819,-43.885982 C 55.413597,-43.556917 55.526878,-43.07011 55.751909,-42.662173 C 55.976937,-42.254236 56.065575,-42.185296 56.427001,-42.002805 C 56.788425,-41.820314 56.998014,-41.51391 57.449711,-41.57368 C 57.901408,-41.633452 58.813064,-41.82042 59.082532,-41.908558 C 59.917493,-42.208812 59.907727,-41.780923 60.281732,-40.776382 C 60.671886,-39.852049 60.636543,-39.14404 61.740623,-39.618607 C 62.124787,-39.695448 62.658105,-39.830073 63.33115,-40.359488 C 64.004192,-40.888904 64.444567,-41.329763 64.87284,-40.785298 C 65.221526,-40.335536 65.956444,-40.4808 66.966554,-40.644188 C 67.880576,-40.660769 68.012179,-39.715101 68.215901,-38.739188 C 68.499232,-37.939765 69.255956,-36.95537 70.348344,-36.356102 C 71.440732,-35.756834 72.010769,-35.254366 72.229471,-34.984277 C 72.65377,-34.47216 72.882182,-34.588135 72.724641,-33.727715 C 72.710351,-32.738636 72.683581,-32.271245 73.674194,-31.684497 C 74.323862,-31.103509 74.782282,-30.628272 75.770432,-30.667412 C 76.15266,-30.606293 76.614339,-30.662012 76.917115,-30.484053 C 77.347904,-30.21671 78.328352,-29.527378 78.735975,-29.081537 C 78.838231,-28.786137 78.086862,-28.377247 78.086862,-28.067397 C 78.084261,-27.456998 78.549512,-25.852236 79.610603,-26.383117 M 78.049505,-23.796548 C 77.684137,-24.111818 76.350555,-24.504216 76.203346,-25.224438 C 76.258935,-25.629968 76.533662,-26.538478 76.454772,-26.864516 C 76.355672,-27.239396 75.773745,-27.923217 75.469746,-28.290927 C 75.127616,-28.440726 74.664013,-28.182038 74.02664,-28.095837 C 73.389267,-28.009667 73.181029,-27.873568 72.760672,-27.851968 C 72.340316,-27.830367 72.182555,-27.543826 71.808926,-27.803168 C 71.435298,-28.062507 71.510167,-28.748606 71.27383,-29.496496 C 71.037494,-30.244388 70.46587,-30.270243 70.25002,-30.435812 C 70.034173,-30.60138 70.046791,-31.298607 69.761308,-31.375127 C 68.999406,-31.550485 68.208037,-30.916687 67.466161,-31.638184 C 67.112517,-31.771296 66.978185,-32.194288 66.7342,-32.472341 C 66.182543,-33.118459 65.947379,-33.498062 64.98269,-33.306501 C 64.64284,-33.306501 64.380001,-33.469318 63.963142,-33.306501 C 63.54628,-33.143682 63.146677,-32.553907 62.738443,-32.177611 C 62.066711,-31.547051 61.670371,-30.830922 60.73138,-31.048722 C 60.385835,-31.048722 59.340265,-31.231109 58.858715,-31.375387 C 58.167684,-31.590543 57.741179,-31.935311 57.203193,-31.190533 C 56.953554,-30.964613 56.637975,-30.327629 56.637975,-30.04966 C 56.646275,-29.482886 56.608624,-29.253558 55.932421,-28.958008 C 55.146603,-28.467177 55.095054,-28.184496 55.226864,-27.107758 C 55.226864,-26.494748 55.353182,-25.641726 55.507569,-25.546327 C 56.546892,-24.575677 56.350508,-24.830508 55.373938,-23.754707 C 54.935042,-23.268897 54.944641,-21.952937 54.944641,-21.785037 C 54.944641,-21.617138 55.017841,-20.967337 55.522253,-20.561988 C 56.355934,-19.904887 57.041417,-19.429756 56.496864,-18.207606 C 56.29585,-18.010716 55.856451,-18.146506 55.536244,-18.115907 C 55.216038,-18.085308 54.993473,-18.221057 54.575622,-18.024207 C 54.157773,-17.827357 53.724079,-17.172657 53.298309,-16.746886 C 52.872536,-16.321116 52.141392,-15.960688 52.02099,-15.469576 C 51.900589,-14.978467 52.226511,-14.815756 52.389086,-14.298567 C 52.551662,-13.781368 52.829049,-12.159456 52.885889,-11.393646 C 52.94274,-10.627847 53.105025,-10.666687 53.014596,-10.224188 C 52.924164,-9.7816958 53.546559,-9.0324958 53.132949,-8.2326658 C 52.719342,-7.4328358 52.577086,-6.5050162 53.674641,-5.2921768 C 54.772199,-4.0793374 54.424201,-4.1951772 54.662421,-3.5769174 C 55.238683,-2.0827069 54.795221,-0.12594637 56.285198,1.0243931 C 56.637975,1.4501342 56.908397,2.1311743 57.343531,2.3016136 C 57.778665,2.4720635 57.977356,2.2173729 58.478744,2.1506741 C 58.980132,2.0840124 59.801613,2.1184029 60.030968,2.2634343 L 60.030965,2.2633522 C 60.260316,2.4083942 60.721821,2.5293828 61.073045,2.5313831 M 269.59064,-48.327016 C 269.1896,-48.899556 269.1513,-49.065555 269.1513,-49.201583 C 269.1513,-49.337616 269.462,-49.419195 269.26129,-49.842187 C 269.06055,-50.265184 268.10184,-50.50736 268.07294,-50.799915 C 268.04393,-51.092462 268.5258,-51.734635 268.5829,-51.962174 C 268.64,-52.189713 268.24165,-52.541437 268.44378,-52.842427 C 268.64586,-53.143409 268.86969,-52.938922 269.77043,-53.601347 C 270.22079,-53.932553 270.82425,-54.125601 271.38509,-54.170099 C 271.94594,-54.214597 272.46419,-54.110544 272.74413,-53.84755 C 273.30402,-53.321552 273.16442,-53.246255 273.41,-53.221993 C 273.65556,-53.197733 273.67869,-53.389408 273.89121,-53.521837 C 274.10374,-53.654264 274.55063,-54.358082 274.69165,-54.782394 C 274.8327,-55.206704 274.8028,-55.592956 275.01095,-55.743107 C 275.57419,-55.866813 275.95392,-55.284142 276.06574,-55.178663 C 276.48965,-54.765834 276.11913,-53.728596 276.14574,-52.72134 C 276.17224,-51.714082 276.56772,-50.842981 276.22573,-50.264017 C 275.97549,-49.778954 275.66382,-49.45766 274.99286,-49.334581 C 274.64893,-49.279312 274.28301,-49.448087 273.92807,-49.504848 C 273.57314,-49.561596 272.648,-49.771924 272.29884,-49.675113 C 271.94968,-49.578305 272.11514,-48.956105 271.46046,-48.405219 C 270.80577,-47.854338 269.9917,-47.754476 269.59068,-48.327021 Z M 241.87312,-5.1325854 C 242.53816,-4.3977158 241.96861,-3.4820961 241.07018,-2.7310763 C 240.4113,-2.1822378 239.59062,-1.8307071 239.80018,-1.119097 C 239.80018,-0.87599777 239.46471,-0.23321637 239.19935,0.03215273 C 238.93397,0.29752453 238.98801,0.49493283 238.5985,0.63299233 C 238.20899,0.77105463 237.51785,0.52004443 236.97753,0.46357433 C 236.43721,0.40707263 235.97419,0.22830423 235.35656,0.29414313 C 234.73893,0.35994233 234.24392,0.65859343 233.36377,0.94688343 C 232.48362,1.2351734 230.98083,1.8552642 230.67219,2.0574932 C 230.36356,2.2597142 230.10821,2.2203839 229.97339,2.5153626 C 229.83856,2.8103439 230.07182,3.2491342 230.12101,3.6160239 C 230.17025,3.9829137 230.39685,4.4243233 230.26864,4.7166826 C 230.14045,5.0090525 229.90056,4.9744926 229.6094,5.1784441 C 229.31823,5.3823822 228.50216,5.6422242 227.95461,5.6445129 C 227.40706,5.6465131 226.17597,5.7873138 226.00299,5.8968539 M 293.59854,18.896273 L 303.50048,-111.96292 M 236.41335,-111.55651 C 236.41335,-111.20089 236.53962,-110.68939 236.69397,-110.41986 C 236.84832,-110.15033 237.29952,-109.03029 237.55653,-108.31874 C 237.81356,-107.60718 237.87005,-107.09257 238.13846,-106.70767 C 238.40689,-106.32278 238.60949,-106.31134 238.98207,-105.99783 C 239.67044,-105.04518 241.34371,-105.2282 242.05401,-104.68795 C 242.49901,-104.12684 242.65545,-103.18152 243.45618,-102.93691 C 243.77205,-102.85431 244.12479,-102.541 244.19939,-102.34661 C 244.56792,-101.82237 244.11118,-101.53369 243.7685,-101.06419 C 243.56857,-100.78342 243.2245,-100.51745 243.16871,-100.22188 C 243.11301,-99.926321 243.2734,-99.804561 243.3563,-99.474441 C 243.43921,-99.144331 243.97153,-98.166791 244.49418,-97.482071 C 245.62668,-96.209495 245.43457,-95.771165 244.33543,-94.880813 C 243.72547,-94.39063 243.1209,-93.657078 243.0374,-93.394061 C 242.67209,-92.449824 243.51511,-92.21934 244.35508,-92.038381 C 244.76959,-91.953611 245.06669,-92.023853 245.29356,-91.846445 C 245.52043,-91.669047 246.04317,-90.893968 246.18966,-90.587015 C 246.33613,-90.280058 246.38965,-89.539447 246.73202,-88.814039 C 247.07439,-88.088634 247.13038,-87.914353 247.5072,-87.736053 C 249.18718,-88.873518 249.4568,-89.276602 250.7951,-87.075795 C 251.49506,-86.713824 251.31902,-86.865761 252.03666,-87.495867 C 252.75431,-88.125974 252.71765,-88.294009 253.00408,-88.345258 C 253.71965,-88.148559 254.16564,-88.180098 254.71831,-88.460498 C 255.54707,-88.88907 255.89774,-87.670843 256.73362,-88.19852 C 257.56951,-88.726192 257.65086,-88.898812 257.85157,-88.621682 C 258.05228,-88.344549 258.51535,-87.096936 258.59395,-86.783793 C 258.67255,-86.470656 258.76651,-86.047627 258.59095,-85.161194 C 258.41491,-84.274758 258.90431,-84.1342 258.9413,-83.039444 C 258.9783,-81.944691 258.55805,-81.516789 258.79406,-80.984637 C 259.0301,-80.452491 259.94998,-79.491617 260.42915,-79.027335 C 261.17708,-78.646805 261.3193,-77.644469 261.10397,-76.989913 C 261.01638,-76.455936 261.22653,-74.940721 261.03378,-74.722582 C 260.84107,-74.504446 260.84067,-74.338362 260.59744,-74.228692 C 260.35421,-74.119031 259.96957,-74.228692 259.65562,-74.228692 C 258.14573,-74.608933 258.1914,-77.058035 256.39099,-76.533668 C 256.10367,-76.423155 256.45289,-75.931672 256.20158,-75.630675 C 255.9503,-75.329677 255.72099,-74.825106 255.44771,-74.727675 C 254.61693,-74.846354 253.65631,-74.681654 253.40445,-75.149368 C 253.05993,-75.868172 252.19052,-75.693928 251.49468,-74.934252 C 250.79883,-74.174569 250.8838,-74.640262 250.58991,-74.510916 C 249.98552,-74.518017 249.8323,-74.385016 249.41589,-73.946475 C 248.87916,-73.222831 248.80002,-72.822115 249.13692,-72.182582 C 249.05402,-71.274143 249.87581,-70.989512 250.06919,-70.616487 C 250.26892,-70.216538 250.66851,-69.892039 250.68602,-69.247591 C 250.70352,-68.603145 250.88109,-67.710851 250.73841,-67.314252 C 250.59574,-66.917657 250.47759,-67.015529 250.34716,-66.866166 C 250.21675,-66.716806 249.94262,-66.644237 249.95591,-66.418089 C 249.96922,-66.191947 250.27235,-66.131733 250.52264,-65.90521 C 250.77296,-65.678682 251.08938,-65.225927 251.08938,-65.022552 C 251.08938,-64.819175 251.4419,-64.23561 251.87279,-63.72574 C 252.30366,-63.215866 252.30441,-62.378188 252.47263,-62.045545 C 252.95953,-61.432159 252.79739,-60.964733 252.67804,-60.352212 C 252.60054,-59.936964 252.96707,-58.822637 252.88806,-58.356396 C 252.73864,-57.73997 252.5872,-57.272459 253.01575,-56.931279 C 253.15119,-56.768097 253.42269,-55.934726 253.502,-55.438677 C 253.5813,-54.942631 253.24643,-54.79002 253.11715,-54.315558 C 252.98786,-53.841094 253.03674,-53.535172 252.5266,-52.917854 C 252.01648,-52.300536 252.50049,-51.883778 252.50049,-51.638337 C 252.50049,-51.392891 252.31411,-50.265422 252.7762,-49.822724 C 253.23827,-49.380023 253.21785,-48.514995 253.34912,-48.117241 C 253.48038,-47.71949 253.65233,-47.507707 253.64634,-47.216663 C 253.64034,-46.925621 253.48792,-46.800034 253.36263,-46.470459 C 253.23731,-46.14088 252.90279,-45.724252 252.68753,-45.724252 C 252.47226,-45.724252 251.56591,-45.133347 250.98828,-44.665918 C 250.41066,-44.198487 249.85407,-43.970681 249.68045,-43.607585 M 254.85187,-43.064369 C 254.65545,-43.576221 256.06352,-44.831944 257.37492,-45.264263 C 258.68632,-45.696579 258.65685,-46.68869 258.82609,-47.464607 C 258.99526,-48.240529 258.7897,-47.961743 258.99026,-48.21723 C 259.19081,-48.472717 259.69617,-48.562146 260.04912,-48.734607 C 260.40207,-48.907067 260.89587,-48.941474 261.10796,-49.251989 C 261.32005,-49.562504 261.16697,-49.968049 261.19646,-50.326078 C 261.22597,-50.684107 261.13626,-51.201698 261.28497,-51.400165 C 261.43376,-51.598623 261.49898,-51.482283 261.66826,-51.547254 C 261.83757,-51.612215 262.38796,-51.514303 262.65403,-51.37192 C 262.92011,-51.229532 262.9467,-51.043101 263.25648,-51.049502 C 263.56626,-51.056 264.58916,-51.734188 265.39797,-52.211401 C 266.20679,-52.688614 266.08131,-51.724147 266.32381,-50.823542 C 266.56632,-49.922938 266.44294,-49.920951 266.63042,-49.684921 C 266.81788,-49.448889 267.00031,-49.486949 267.18527,-49.387969 C 267.37022,-49.288988 267.59948,-49.325807 267.74013,-49.091016 C 267.88076,-48.856225 267.74013,-48.415802 267.74013,-48.078194 C 267.74013,-47.740586 267.9258,-47.47615 267.74013,-47.065369 C 267.55444,-46.65459 266.89347,-46.320104 266.47013,-45.94747 C 266.04681,-45.574839 265.37855,-45.224337 265.20013,-44.829574 C 265.02169,-44.434813 265.20013,-44.322968 265.20013,-43.922225 C 265.20013,-43.521482 265.33365,-42.881354 265.49684,-42.718154 C 265.66005,-42.554956 265.82483,-41.546594 265.84964,-40.854558 C 265.87423,-40.162519 266.06067,-39.752124 265.90564,-39.28768 C 265.75067,-38.823236 265.33146,-38.577528 265.04437,-38.222454 C 264.75729,-37.867378 264.55015,-37.391652 264.18308,-37.157226 C 263.81605,-36.922797 263.37917,-36.955478 262.97722,-36.854609 C 262.57526,-36.753736 262.27577,-36.875249 261.77135,-36.551989 C 261.26696,-36.228753 260.94911,-35.528617 260.29865,-34.719082 C 259.64821,-33.909547 258.55644,-32.834278 258.34326,-32.793228 C 258.13009,-32.752167 258.00975,-32.617418 257.86061,-32.700277"
       id="path1747" />
  </g>
</svg>
