<?xml version="1.0" encoding="UTF-8" standalone="no"?>
<svg
   xmlns:dc="http://purl.org/dc/elements/1.1/"
   xmlns:cc="http://creativecommons.org/ns#"
   xmlns:rdf="http://www.w3.org/1999/02/22-rdf-syntax-ns#"
   xmlns:svg="http://www.w3.org/2000/svg"
   xmlns="http://www.w3.org/2000/svg"
   id="svg1093"
   version="1.1"
   viewBox="0 0 286.91275 144.59052"
   height="144.59052mm"
   width="286.91275mm">
  <defs
     id="defs1087">
    <clipPath
       id="p711d462d76-4-3">
      <rect
         height="295.20001"
         width="575.28003"
         x="115.056"
         y="39.360001"
         id="rect21264-8"
         style="stroke-linecap:butt;stroke-linejoin:round" />
    </clipPath>
    <clipPath
       id="clipPath880">
      <rect
         height="295.20001"
         width="575.28003"
         x="115.056"
         y="39.360001"
         id="rect878"
         style="stroke-linecap:butt;stroke-linejoin:round" />
    </clipPath>
    <clipPath
       id="clipPath884">
      <rect
         height="295.20001"
         width="575.28003"
         x="115.056"
         y="39.360001"
         id="rect882"
         style="stroke-linecap:butt;stroke-linejoin:round" />
    </clipPath>
    <clipPath
       id="clipPath888">
      <rect
         height="295.20001"
         width="575.28003"
         x="115.056"
         y="39.360001"
         id="rect886"
         style="stroke-linecap:butt;stroke-linejoin:round" />
    </clipPath>
    <clipPath
       id="clipPath892">
      <rect
         height="295.20001"
         width="575.28003"
         x="115.056"
         y="39.360001"
         id="rect890"
         style="stroke-linecap:butt;stroke-linejoin:round" />
    </clipPath>
    <clipPath
       id="clipPath896">
      <rect
         height="295.20001"
         width="575.28003"
         x="115.056"
         y="39.360001"
         id="rect894"
         style="stroke-linecap:butt;stroke-linejoin:round" />
    </clipPath>
    <clipPath
       id="clipPath900">
      <rect
         height="295.20001"
         width="575.28003"
         x="115.056"
         y="39.360001"
         id="rect898"
         style="stroke-linecap:butt;stroke-linejoin:round" />
    </clipPath>
    <clipPath
       id="clipPath904">
      <rect
         height="295.20001"
         width="575.28003"
         x="115.056"
         y="39.360001"
         id="rect902"
         style="stroke-linecap:butt;stroke-linejoin:round" />
    </clipPath>
    <clipPath
       id="clipPath908">
      <rect
         height="295.20001"
         width="575.28003"
         x="115.056"
         y="39.360001"
         id="rect906"
         style="stroke-linecap:butt;stroke-linejoin:round" />
    </clipPath>
    <clipPath
       id="clipPath912">
      <rect
         height="295.20001"
         width="575.28003"
         x="115.056"
         y="39.360001"
         id="rect910"
         style="stroke-linecap:butt;stroke-linejoin:round" />
    </clipPath>
    <clipPath
       id="clipPath916">
      <rect
         height="295.20001"
         width="575.28003"
         x="115.056"
         y="39.360001"
         id="rect914"
         style="stroke-linecap:butt;stroke-linejoin:round" />
    </clipPath>
    <clipPath
       id="clipPath920">
      <rect
         height="295.20001"
         width="575.28003"
         x="115.056"
         y="39.360001"
         id="rect918"
         style="stroke-linecap:butt;stroke-linejoin:round" />
    </clipPath>
    <clipPath
       id="clipPath924">
      <rect
         height="295.20001"
         width="575.28003"
         x="115.056"
         y="39.360001"
         id="rect922"
         style="stroke-linecap:butt;stroke-linejoin:round" />
    </clipPath>
    <clipPath
       id="clipPath928">
      <rect
         height="295.20001"
         width="575.28003"
         x="115.056"
         y="39.360001"
         id="rect926"
         style="stroke-linecap:butt;stroke-linejoin:round" />
    </clipPath>
    <clipPath
       id="clipPath932">
      <rect
         height="295.20001"
         width="575.28003"
         x="115.056"
         y="39.360001"
         id="rect930"
         style="stroke-linecap:butt;stroke-linejoin:round" />
    </clipPath>
    <clipPath
       id="clipPath936">
      <rect
         height="295.20001"
         width="575.28003"
         x="115.056"
         y="39.360001"
         id="rect934"
         style="stroke-linecap:butt;stroke-linejoin:round" />
    </clipPath>
    <clipPath
       id="clipPath940">
      <rect
         height="295.20001"
         width="575.28003"
         x="115.056"
         y="39.360001"
         id="rect938"
         style="stroke-linecap:butt;stroke-linejoin:round" />
    </clipPath>
    <clipPath
       id="clipPath944">
      <rect
         height="295.20001"
         width="575.28003"
         x="115.056"
         y="39.360001"
         id="rect942"
         style="stroke-linecap:butt;stroke-linejoin:round" />
    </clipPath>
    <clipPath
       id="clipPath948">
      <rect
         height="295.20001"
         width="575.28003"
         x="115.056"
         y="39.360001"
         id="rect946"
         style="stroke-linecap:butt;stroke-linejoin:round" />
    </clipPath>
    <clipPath
       id="clipPath952">
      <rect
         height="295.20001"
         width="575.28003"
         x="115.056"
         y="39.360001"
         id="rect950"
         style="stroke-linecap:butt;stroke-linejoin:round" />
    </clipPath>
    <clipPath
       id="clipPath956">
      <rect
         height="295.20001"
         width="575.28003"
         x="115.056"
         y="39.360001"
         id="rect954"
         style="stroke-linecap:butt;stroke-linejoin:round" />
    </clipPath>
    <clipPath
       id="clipPath960">
      <rect
         height="295.20001"
         width="575.28003"
         x="115.056"
         y="39.360001"
         id="rect958"
         style="stroke-linecap:butt;stroke-linejoin:round" />
    </clipPath>
    <clipPath
       id="clipPath964">
      <rect
         height="295.20001"
         width="575.28003"
         x="115.056"
         y="39.360001"
         id="rect962"
         style="stroke-linecap:butt;stroke-linejoin:round" />
    </clipPath>
    <clipPath
       id="clipPath968">
      <rect
         height="295.20001"
         width="575.28003"
         x="115.056"
         y="39.360001"
         id="rect966"
         style="stroke-linecap:butt;stroke-linejoin:round" />
    </clipPath>
    <clipPath
       id="clipPath972">
      <rect
         height="295.20001"
         width="575.28003"
         x="115.056"
         y="39.360001"
         id="rect970"
         style="stroke-linecap:butt;stroke-linejoin:round" />
    </clipPath>
  </defs>
  <metadata
     id="metadata1090">
    <rdf:RDF>
      <cc:Work
         rdf:about="">
        <dc:format>image/svg+xml</dc:format>
        <dc:type
           rdf:resource="http://purl.org/dc/dcmitype/StillImage" />
        <dc:title></dc:title>
      </cc:Work>
    </rdf:RDF>
  </metadata>
  <g
     transform="translate(3.6051771,129.83692)"
     id="layer1">
    <path
       id="path3165"
       d="M 257.67005,-33.197095 C 257.58585,-33.416522 257.65305,-35.069882 257.79047,-36.158336 257.92786,-37.246792 257.90949,-36.9723 258.10154,-37.493873 258.29358,-38.015449 258.3619,-37.891232 258.56785,-38.20556 258.77381,-38.519887 259.37674,-40.094915 259.64773,-40.133507 259.91872,-40.172097 260.10112,-40.600724 260.26129,-40.785327 260.42147,-40.969929 260.26129,-41.34977 260.26129,-41.631993 260.24019,-42.36349 259.63605,-41.945961 259.17833,-41.914216 258.96156,-41.786521 258.30105,-41.34977 258.14463,-41.06755 257.98821,-40.785327 257.89213,-40.348576 257.67536,-40.220883 257.34801,-40.198133 256.72887,-40.108009 256.5924,-40.220883 256.3826,-40.406094 257.06278,-40.973477 257.01574,-41.34977 256.96874,-41.726066 257.12268,-42.237598 256.87463,-42.47866 256.62657,-42.719722 256.25236,-42.53842 255.94122,-42.5683 255.63009,-42.59818 255.18998,-42.51944 255.00782,-42.65794 254.82565,-42.796444 255.04832,-42.552514 254.85186,-43.064366 254.65544,-43.576219 256.06352,-44.831942 257.37491,-45.26426 258.68631,-45.696576 258.65684,-46.688687 258.82609,-47.464604 258.99534,-48.240524 258.78969,-47.96174 258.99025,-48.217227 259.19081,-48.472714 259.69616,-48.562144 260.04911,-48.734604 260.40206,-48.907065 260.89586,-48.941471 261.10796,-49.251986 261.32005,-49.562501 261.16696,-49.968047 261.19646,-50.326076 261.22596,-50.684105 261.13626,-51.201696 261.28496,-51.400162 261.43376,-51.598626 261.49898,-51.482282 261.66826,-51.547252 261.83757,-51.612212 262.38795,-51.514302 262.65402,-51.371918 262.92011,-51.22953 262.9467,-51.043049 263.25647,-51.049499 263.56625,-51.055999 264.58915,-51.734185 265.39796,-52.211399 266.20679,-52.688612 266.0813,-51.724145 266.32381,-50.82354 266.56631,-49.922935 266.44293,-49.920948 266.63041,-49.684919 266.81787,-49.448887 267.0003,-49.48695 267.18527,-49.387966 267.37021,-49.288986 267.59948,-49.325806 267.74013,-49.091014 267.88075,-48.856223 267.74013,-48.4158 267.74013,-48.078192 267.74013,-47.740583 267.92579,-47.476148 267.74013,-47.065367 267.55444,-46.654588 266.89346,-46.320101 266.47013,-45.947468 266.0468,-45.574836 265.37854,-45.224335 265.20013,-44.829571 265.02169,-44.43481 265.20013,-44.322966 265.20013,-43.922222 265.20013,-43.521479 265.33364,-42.881352 265.49683,-42.718151 265.66005,-42.554954 265.82486,-41.546592 265.84963,-40.854556 265.87423,-40.162517 266.06066,-39.752122 265.90563,-39.287677 265.75066,-38.823233 265.33145,-38.577525 265.04436,-38.222452 264.75728,-37.867376 264.55014,-37.39165 264.18308,-37.157223 263.81605,-36.922797 263.37917,-36.955476 262.97722,-36.854606 262.57526,-36.753734 262.27576,-36.875246 261.77135,-36.551986 261.26695,-36.22875 260.9491,-35.528615 260.29865,-34.71908 259.6482,-33.909545 258.55644,-32.834278 258.34326,-32.793226 258.13009,-32.752166 258.00974,-32.617421 257.8606,-32.700276 257.71145,-32.783126 257.75415,-32.977663 257.66995,-33.197092 Z"
       style="display:inline;opacity:1;fill:#ffffff;fill-opacity:1;stroke:#000000;stroke-width:0.49999994;stroke-linejoin:round;stroke-miterlimit:4;stroke-dasharray:none;stroke-opacity:1" />
  </g>
</svg>
