<?xml version="1.0" encoding="UTF-8" standalone="no"?>
<svg
   xmlns:dc="http://purl.org/dc/elements/1.1/"
   xmlns:cc="http://creativecommons.org/ns#"
   xmlns:rdf="http://www.w3.org/1999/02/22-rdf-syntax-ns#"
   xmlns:svg="http://www.w3.org/2000/svg"
   xmlns="http://www.w3.org/2000/svg"
   id="svg1093"
   version="1.1"
   viewBox="0 0 286.91275 144.59052"
   height="144.59052mm"
   width="286.91275mm">
  <defs
     id="defs1087">
    <clipPath
       id="p711d462d76-4-3">
      <rect
         height="295.20001"
         width="575.28003"
         x="115.056"
         y="39.360001"
         id="rect21264-8"
         style="stroke-linecap:butt;stroke-linejoin:round" />
    </clipPath>
    <clipPath
       id="clipPath880">
      <rect
         height="295.20001"
         width="575.28003"
         x="115.056"
         y="39.360001"
         id="rect878"
         style="stroke-linecap:butt;stroke-linejoin:round" />
    </clipPath>
    <clipPath
       id="clipPath884">
      <rect
         height="295.20001"
         width="575.28003"
         x="115.056"
         y="39.360001"
         id="rect882"
         style="stroke-linecap:butt;stroke-linejoin:round" />
    </clipPath>
    <clipPath
       id="clipPath888">
      <rect
         height="295.20001"
         width="575.28003"
         x="115.056"
         y="39.360001"
         id="rect886"
         style="stroke-linecap:butt;stroke-linejoin:round" />
    </clipPath>
    <clipPath
       id="clipPath892">
      <rect
         height="295.20001"
         width="575.28003"
         x="115.056"
         y="39.360001"
         id="rect890"
         style="stroke-linecap:butt;stroke-linejoin:round" />
    </clipPath>
    <clipPath
       id="clipPath896">
      <rect
         height="295.20001"
         width="575.28003"
         x="115.056"
         y="39.360001"
         id="rect894"
         style="stroke-linecap:butt;stroke-linejoin:round" />
    </clipPath>
    <clipPath
       id="clipPath900">
      <rect
         height="295.20001"
         width="575.28003"
         x="115.056"
         y="39.360001"
         id="rect898"
         style="stroke-linecap:butt;stroke-linejoin:round" />
    </clipPath>
    <clipPath
       id="clipPath904">
      <rect
         height="295.20001"
         width="575.28003"
         x="115.056"
         y="39.360001"
         id="rect902"
         style="stroke-linecap:butt;stroke-linejoin:round" />
    </clipPath>
    <clipPath
       id="clipPath908">
      <rect
         height="295.20001"
         width="575.28003"
         x="115.056"
         y="39.360001"
         id="rect906"
         style="stroke-linecap:butt;stroke-linejoin:round" />
    </clipPath>
    <clipPath
       id="clipPath912">
      <rect
         height="295.20001"
         width="575.28003"
         x="115.056"
         y="39.360001"
         id="rect910"
         style="stroke-linecap:butt;stroke-linejoin:round" />
    </clipPath>
    <clipPath
       id="clipPath916">
      <rect
         height="295.20001"
         width="575.28003"
         x="115.056"
         y="39.360001"
         id="rect914"
         style="stroke-linecap:butt;stroke-linejoin:round" />
    </clipPath>
    <clipPath
       id="clipPath920">
      <rect
         height="295.20001"
         width="575.28003"
         x="115.056"
         y="39.360001"
         id="rect918"
         style="stroke-linecap:butt;stroke-linejoin:round" />
    </clipPath>
    <clipPath
       id="clipPath924">
      <rect
         height="295.20001"
         width="575.28003"
         x="115.056"
         y="39.360001"
         id="rect922"
         style="stroke-linecap:butt;stroke-linejoin:round" />
    </clipPath>
    <clipPath
       id="clipPath928">
      <rect
         height="295.20001"
         width="575.28003"
         x="115.056"
         y="39.360001"
         id="rect926"
         style="stroke-linecap:butt;stroke-linejoin:round" />
    </clipPath>
    <clipPath
       id="clipPath932">
      <rect
         height="295.20001"
         width="575.28003"
         x="115.056"
         y="39.360001"
         id="rect930"
         style="stroke-linecap:butt;stroke-linejoin:round" />
    </clipPath>
    <clipPath
       id="clipPath936">
      <rect
         height="295.20001"
         width="575.28003"
         x="115.056"
         y="39.360001"
         id="rect934"
         style="stroke-linecap:butt;stroke-linejoin:round" />
    </clipPath>
    <clipPath
       id="clipPath940">
      <rect
         height="295.20001"
         width="575.28003"
         x="115.056"
         y="39.360001"
         id="rect938"
         style="stroke-linecap:butt;stroke-linejoin:round" />
    </clipPath>
    <clipPath
       id="clipPath944">
      <rect
         height="295.20001"
         width="575.28003"
         x="115.056"
         y="39.360001"
         id="rect942"
         style="stroke-linecap:butt;stroke-linejoin:round" />
    </clipPath>
    <clipPath
       id="clipPath948">
      <rect
         height="295.20001"
         width="575.28003"
         x="115.056"
         y="39.360001"
         id="rect946"
         style="stroke-linecap:butt;stroke-linejoin:round" />
    </clipPath>
    <clipPath
       id="clipPath952">
      <rect
         height="295.20001"
         width="575.28003"
         x="115.056"
         y="39.360001"
         id="rect950"
         style="stroke-linecap:butt;stroke-linejoin:round" />
    </clipPath>
    <clipPath
       id="clipPath956">
      <rect
         height="295.20001"
         width="575.28003"
         x="115.056"
         y="39.360001"
         id="rect954"
         style="stroke-linecap:butt;stroke-linejoin:round" />
    </clipPath>
    <clipPath
       id="clipPath960">
      <rect
         height="295.20001"
         width="575.28003"
         x="115.056"
         y="39.360001"
         id="rect958"
         style="stroke-linecap:butt;stroke-linejoin:round" />
    </clipPath>
    <clipPath
       id="clipPath964">
      <rect
         height="295.20001"
         width="575.28003"
         x="115.056"
         y="39.360001"
         id="rect962"
         style="stroke-linecap:butt;stroke-linejoin:round" />
    </clipPath>
    <clipPath
       id="clipPath968">
      <rect
         height="295.20001"
         width="575.28003"
         x="115.056"
         y="39.360001"
         id="rect966"
         style="stroke-linecap:butt;stroke-linejoin:round" />
    </clipPath>
    <clipPath
       id="clipPath972">
      <rect
         height="295.20001"
         width="575.28003"
         x="115.056"
         y="39.360001"
         id="rect970"
         style="stroke-linecap:butt;stroke-linejoin:round" />
    </clipPath>
  </defs>
  <metadata
     id="metadata1090">
    <rdf:RDF>
      <cc:Work
         rdf:about="">
        <dc:format>image/svg+xml</dc:format>
        <dc:type
           rdf:resource="http://purl.org/dc/dcmitype/StillImage" />
        <dc:title></dc:title>
      </cc:Work>
    </rdf:RDF>
  </metadata>
  <g
     transform="translate(3.6051771,129.83692)"
     id="layer1">
    <path
       id="path3165"
       d="M 184.08725,-107.95421 C 184.41089,-108.44814 184.25081,-108.49836 184.54955,-108.65977 184.84828,-108.82118 185.34541,-108.65977 185.74335,-108.65977 186.14128,-108.65977 186.64362,-108.52952 186.93715,-108.65977 187.23067,-108.79001 187.21174,-108.96319 187.42896,-109.20321 187.64618,-109.44324 187.86578,-110.03414 187.82227,-110.26155 187.77877,-110.48896 187.90647,-110.60198 187.72377,-110.77643 187.54106,-110.95089 187.06952,-110.87053 186.7424,-110.91755 186.41527,-110.96455 185.94214,-110.88575 185.76103,-111.05866 185.57993,-111.23159 185.13259,-111.39323 185.10059,-111.56052 185.06859,-111.72781 185.49083,-111.77505 185.56905,-112.06239 185.64725,-112.34973 186.13021,-112.70152 186.41079,-113.02109 186.69138,-113.34065 187.06202,-113.43357 187.25254,-113.97979 187.44307,-114.526 187.18044,-115.44144 187.14436,-116.17227 186.87649,-117.45475 187.07676,-118.42048 187.47847,-118.85348 187.83859,-119.25142 187.61504,-120.38664 187.16285,-120.44724 186.71065,-120.50784 186.97453,-120.63351 186.60129,-120.52254 186.22804,-120.41152 183.22326,-121.09164 184.04718,-119.4517 184.8711,-117.81177 183.55801,-118.0371 184.48462,-116.98536 185.41123,-115.93362 184.48462,-115.88798 184.48462,-115.41863 184.48462,-114.94928 183.17007,-113.74501 182.1951,-113.55001 181.22012,-113.35502 180.23496,-111.91633 180.31455,-111.50305 180.39415,-111.08977 180.24495,-111.21452 180.39925,-111.06305 180.55359,-110.91157 180.95723,-110.96635 181.23621,-110.91807 181.5152,-110.86977 181.80652,-111.04309 182.07318,-110.7731 182.33984,-110.50311 182.19944,-109.98617 182.29931,-109.36368 182.39921,-108.74118 182.51315,-107.98924 182.64949,-107.60147 182.78583,-107.21371 183.76356,-107.46032 184.0872,-107.95425 Z"
       style="display:inline;opacity:1;fill:#ffffff;fill-opacity:1;stroke:#000000;stroke-width:0.49999994;stroke-linejoin:round;stroke-miterlimit:4;stroke-dasharray:none;stroke-opacity:1" />
  </g>
</svg>
