<?xml version="1.0" encoding="UTF-8" standalone="no"?>
<svg
   xmlns:dc="http://purl.org/dc/elements/1.1/"
   xmlns:cc="http://creativecommons.org/ns#"
   xmlns:rdf="http://www.w3.org/1999/02/22-rdf-syntax-ns#"
   xmlns:svg="http://www.w3.org/2000/svg"
   xmlns="http://www.w3.org/2000/svg"
   id="svg1093"
   version="1.1"
   viewBox="0 0 286.91275 144.59052"
   height="144.59052mm"
   width="286.91275mm">
  <defs
     id="defs1087">
    <clipPath
       id="p711d462d76-4-3">
      <rect
         height="295.20001"
         width="575.28003"
         x="115.056"
         y="39.360001"
         id="rect21264-8"
         style="stroke-linecap:butt;stroke-linejoin:round" />
    </clipPath>
    <clipPath
       id="clipPath880">
      <rect
         height="295.20001"
         width="575.28003"
         x="115.056"
         y="39.360001"
         id="rect878"
         style="stroke-linecap:butt;stroke-linejoin:round" />
    </clipPath>
    <clipPath
       id="clipPath884">
      <rect
         height="295.20001"
         width="575.28003"
         x="115.056"
         y="39.360001"
         id="rect882"
         style="stroke-linecap:butt;stroke-linejoin:round" />
    </clipPath>
    <clipPath
       id="clipPath888">
      <rect
         height="295.20001"
         width="575.28003"
         x="115.056"
         y="39.360001"
         id="rect886"
         style="stroke-linecap:butt;stroke-linejoin:round" />
    </clipPath>
    <clipPath
       id="clipPath892">
      <rect
         height="295.20001"
         width="575.28003"
         x="115.056"
         y="39.360001"
         id="rect890"
         style="stroke-linecap:butt;stroke-linejoin:round" />
    </clipPath>
    <clipPath
       id="clipPath896">
      <rect
         height="295.20001"
         width="575.28003"
         x="115.056"
         y="39.360001"
         id="rect894"
         style="stroke-linecap:butt;stroke-linejoin:round" />
    </clipPath>
    <clipPath
       id="clipPath900">
      <rect
         height="295.20001"
         width="575.28003"
         x="115.056"
         y="39.360001"
         id="rect898"
         style="stroke-linecap:butt;stroke-linejoin:round" />
    </clipPath>
    <clipPath
       id="clipPath904">
      <rect
         height="295.20001"
         width="575.28003"
         x="115.056"
         y="39.360001"
         id="rect902"
         style="stroke-linecap:butt;stroke-linejoin:round" />
    </clipPath>
    <clipPath
       id="clipPath908">
      <rect
         height="295.20001"
         width="575.28003"
         x="115.056"
         y="39.360001"
         id="rect906"
         style="stroke-linecap:butt;stroke-linejoin:round" />
    </clipPath>
    <clipPath
       id="clipPath912">
      <rect
         height="295.20001"
         width="575.28003"
         x="115.056"
         y="39.360001"
         id="rect910"
         style="stroke-linecap:butt;stroke-linejoin:round" />
    </clipPath>
    <clipPath
       id="clipPath916">
      <rect
         height="295.20001"
         width="575.28003"
         x="115.056"
         y="39.360001"
         id="rect914"
         style="stroke-linecap:butt;stroke-linejoin:round" />
    </clipPath>
    <clipPath
       id="clipPath920">
      <rect
         height="295.20001"
         width="575.28003"
         x="115.056"
         y="39.360001"
         id="rect918"
         style="stroke-linecap:butt;stroke-linejoin:round" />
    </clipPath>
    <clipPath
       id="clipPath924">
      <rect
         height="295.20001"
         width="575.28003"
         x="115.056"
         y="39.360001"
         id="rect922"
         style="stroke-linecap:butt;stroke-linejoin:round" />
    </clipPath>
    <clipPath
       id="clipPath928">
      <rect
         height="295.20001"
         width="575.28003"
         x="115.056"
         y="39.360001"
         id="rect926"
         style="stroke-linecap:butt;stroke-linejoin:round" />
    </clipPath>
    <clipPath
       id="clipPath932">
      <rect
         height="295.20001"
         width="575.28003"
         x="115.056"
         y="39.360001"
         id="rect930"
         style="stroke-linecap:butt;stroke-linejoin:round" />
    </clipPath>
    <clipPath
       id="clipPath936">
      <rect
         height="295.20001"
         width="575.28003"
         x="115.056"
         y="39.360001"
         id="rect934"
         style="stroke-linecap:butt;stroke-linejoin:round" />
    </clipPath>
    <clipPath
       id="clipPath940">
      <rect
         height="295.20001"
         width="575.28003"
         x="115.056"
         y="39.360001"
         id="rect938"
         style="stroke-linecap:butt;stroke-linejoin:round" />
    </clipPath>
    <clipPath
       id="clipPath944">
      <rect
         height="295.20001"
         width="575.28003"
         x="115.056"
         y="39.360001"
         id="rect942"
         style="stroke-linecap:butt;stroke-linejoin:round" />
    </clipPath>
    <clipPath
       id="clipPath948">
      <rect
         height="295.20001"
         width="575.28003"
         x="115.056"
         y="39.360001"
         id="rect946"
         style="stroke-linecap:butt;stroke-linejoin:round" />
    </clipPath>
    <clipPath
       id="clipPath952">
      <rect
         height="295.20001"
         width="575.28003"
         x="115.056"
         y="39.360001"
         id="rect950"
         style="stroke-linecap:butt;stroke-linejoin:round" />
    </clipPath>
    <clipPath
       id="clipPath956">
      <rect
         height="295.20001"
         width="575.28003"
         x="115.056"
         y="39.360001"
         id="rect954"
         style="stroke-linecap:butt;stroke-linejoin:round" />
    </clipPath>
    <clipPath
       id="clipPath960">
      <rect
         height="295.20001"
         width="575.28003"
         x="115.056"
         y="39.360001"
         id="rect958"
         style="stroke-linecap:butt;stroke-linejoin:round" />
    </clipPath>
    <clipPath
       id="clipPath964">
      <rect
         height="295.20001"
         width="575.28003"
         x="115.056"
         y="39.360001"
         id="rect962"
         style="stroke-linecap:butt;stroke-linejoin:round" />
    </clipPath>
    <clipPath
       id="clipPath968">
      <rect
         height="295.20001"
         width="575.28003"
         x="115.056"
         y="39.360001"
         id="rect966"
         style="stroke-linecap:butt;stroke-linejoin:round" />
    </clipPath>
    <clipPath
       id="clipPath972">
      <rect
         height="295.20001"
         width="575.28003"
         x="115.056"
         y="39.360001"
         id="rect970"
         style="stroke-linecap:butt;stroke-linejoin:round" />
    </clipPath>
    <clipPath
       id="p711d462d76-4-3-6">
      <rect
         height="295.20001"
         width="575.28003"
         x="115.056"
         y="39.360001"
         id="rect21264-8-2"
         style="stroke-linecap:butt;stroke-linejoin:round" />
    </clipPath>
    <clipPath
       id="clipPath3838">
      <rect
         height="295.20001"
         width="575.28003"
         x="115.056"
         y="39.360001"
         id="rect3836"
         style="stroke-linecap:butt;stroke-linejoin:round" />
    </clipPath>
    <clipPath
       id="clipPath3842">
      <rect
         height="295.20001"
         width="575.28003"
         x="115.056"
         y="39.360001"
         id="rect3840"
         style="stroke-linecap:butt;stroke-linejoin:round" />
    </clipPath>
    <clipPath
       id="clipPath3846">
      <rect
         height="295.20001"
         width="575.28003"
         x="115.056"
         y="39.360001"
         id="rect3844"
         style="stroke-linecap:butt;stroke-linejoin:round" />
    </clipPath>
    <clipPath
       id="clipPath3850">
      <rect
         height="295.20001"
         width="575.28003"
         x="115.056"
         y="39.360001"
         id="rect3848"
         style="stroke-linecap:butt;stroke-linejoin:round" />
    </clipPath>
    <clipPath
       id="clipPath3854">
      <rect
         height="295.20001"
         width="575.28003"
         x="115.056"
         y="39.360001"
         id="rect3852"
         style="stroke-linecap:butt;stroke-linejoin:round" />
    </clipPath>
    <clipPath
       id="clipPath3858">
      <rect
         height="295.20001"
         width="575.28003"
         x="115.056"
         y="39.360001"
         id="rect3856"
         style="stroke-linecap:butt;stroke-linejoin:round" />
    </clipPath>
    <clipPath
       id="clipPath3862">
      <rect
         height="295.20001"
         width="575.28003"
         x="115.056"
         y="39.360001"
         id="rect3860"
         style="stroke-linecap:butt;stroke-linejoin:round" />
    </clipPath>
    <clipPath
       id="clipPath3866">
      <rect
         height="295.20001"
         width="575.28003"
         x="115.056"
         y="39.360001"
         id="rect3864"
         style="stroke-linecap:butt;stroke-linejoin:round" />
    </clipPath>
    <clipPath
       id="clipPath3870">
      <rect
         height="295.20001"
         width="575.28003"
         x="115.056"
         y="39.360001"
         id="rect3868"
         style="stroke-linecap:butt;stroke-linejoin:round" />
    </clipPath>
    <clipPath
       id="clipPath3874">
      <rect
         height="295.20001"
         width="575.28003"
         x="115.056"
         y="39.360001"
         id="rect3872"
         style="stroke-linecap:butt;stroke-linejoin:round" />
    </clipPath>
    <clipPath
       id="clipPath3878">
      <rect
         height="295.20001"
         width="575.28003"
         x="115.056"
         y="39.360001"
         id="rect3876"
         style="stroke-linecap:butt;stroke-linejoin:round" />
    </clipPath>
    <clipPath
       id="clipPath3882">
      <rect
         height="295.20001"
         width="575.28003"
         x="115.056"
         y="39.360001"
         id="rect3880"
         style="stroke-linecap:butt;stroke-linejoin:round" />
    </clipPath>
    <clipPath
       id="clipPath3886">
      <rect
         height="295.20001"
         width="575.28003"
         x="115.056"
         y="39.360001"
         id="rect3884"
         style="stroke-linecap:butt;stroke-linejoin:round" />
    </clipPath>
    <clipPath
       id="clipPath3890">
      <rect
         height="295.20001"
         width="575.28003"
         x="115.056"
         y="39.360001"
         id="rect3888"
         style="stroke-linecap:butt;stroke-linejoin:round" />
    </clipPath>
    <clipPath
       id="clipPath3894">
      <rect
         height="295.20001"
         width="575.28003"
         x="115.056"
         y="39.360001"
         id="rect3892"
         style="stroke-linecap:butt;stroke-linejoin:round" />
    </clipPath>
    <clipPath
       id="clipPath3898">
      <rect
         height="295.20001"
         width="575.28003"
         x="115.056"
         y="39.360001"
         id="rect3896"
         style="stroke-linecap:butt;stroke-linejoin:round" />
    </clipPath>
    <clipPath
       id="clipPath3902">
      <rect
         height="295.20001"
         width="575.28003"
         x="115.056"
         y="39.360001"
         id="rect3900"
         style="stroke-linecap:butt;stroke-linejoin:round" />
    </clipPath>
    <clipPath
       id="clipPath3906">
      <rect
         height="295.20001"
         width="575.28003"
         x="115.056"
         y="39.360001"
         id="rect3904"
         style="stroke-linecap:butt;stroke-linejoin:round" />
    </clipPath>
    <clipPath
       id="clipPath3910">
      <rect
         height="295.20001"
         width="575.28003"
         x="115.056"
         y="39.360001"
         id="rect3908"
         style="stroke-linecap:butt;stroke-linejoin:round" />
    </clipPath>
    <clipPath
       id="clipPath3914">
      <rect
         height="295.20001"
         width="575.28003"
         x="115.056"
         y="39.360001"
         id="rect3912"
         style="stroke-linecap:butt;stroke-linejoin:round" />
    </clipPath>
    <clipPath
       id="clipPath3918">
      <rect
         height="295.20001"
         width="575.28003"
         x="115.056"
         y="39.360001"
         id="rect3916"
         style="stroke-linecap:butt;stroke-linejoin:round" />
    </clipPath>
    <clipPath
       id="clipPath3922">
      <rect
         height="295.20001"
         width="575.28003"
         x="115.056"
         y="39.360001"
         id="rect3920"
         style="stroke-linecap:butt;stroke-linejoin:round" />
    </clipPath>
    <clipPath
       id="clipPath3926">
      <rect
         height="295.20001"
         width="575.28003"
         x="115.056"
         y="39.360001"
         id="rect3924"
         style="stroke-linecap:butt;stroke-linejoin:round" />
    </clipPath>
    <clipPath
       id="clipPath3930">
      <rect
         height="295.20001"
         width="575.28003"
         x="115.056"
         y="39.360001"
         id="rect3928"
         style="stroke-linecap:butt;stroke-linejoin:round" />
    </clipPath>
  </defs>
  <metadata
     id="metadata1090">
    <rdf:RDF>
      <cc:Work
         rdf:about="">
        <dc:format>image/svg+xml</dc:format>
        <dc:type
           rdf:resource="http://purl.org/dc/dcmitype/StillImage" />
        <dc:title></dc:title>
      </cc:Work>
    </rdf:RDF>
  </metadata>
  <g
     style="display:inline"
     id="layer3">
    <path
       id="path3165"
       d="M 103.99486,-114.07841 C 103.20139,-113.64328 102.58165,-114.48636 102.08798,-114.59802 V -114.59805 C 101.75509,-114.67105 101.31045,-114.54715 100.92169,-114.52165 C 100.26957,-114.45145 99.663493,-114.23715 99.531973,-114.86862 C 99.433273,-115.05559 99.175003,-115.92225 99.069363,-116.42084 C 98.946883,-116.95663 99.064363,-117.22606 98.406863,-116.98529 C 97.131513,-117.06149 97.394423,-116.7962 97.323553,-116.13862 C 97.208953,-115.12296 96.394358,-115.12481 95.400409,-115.99751 C 94.406462,-116.8702 94.261319,-116.84417 94.047684,-116.84417 C 93.834052,-116.84417 93.261491,-116.37145 92.946835,-115.99751 C 92.632179,-115.62356 91.98395,-115.86143 91.669969,-115.71529 C 91.355988,-115.56914 91.493987,-115.71529 90.698525,-115.71529 C 89.903066,-115.71529 89.697712,-116.24893 89.607608,-117.55417 C 89.517498,-118.85941 89.653728,-118.80836 89.490408,-119.25195 C 89.271016,-119.99375 88.22666,-120.44153 88.141689,-121.07619 C 88.105039,-121.45742 88.475594,-121.77639 88.642548,-122.1265 C 89.180385,-122.99226 89.226097,-123.13696 88.567258,-123.60883 C 88.31279,-123.79963 87.580685,-124.33081 87.256026,-124.56019 C 86.663126,-124.89729 86.389986,-125.0531 86.607791,-125.68908 C 86.636741,-125.89226 86.451756,-126.66316 86.694641,-126.86306 C 90.742669,-127.26281 189.35762,-126.45807 189.35762,-126.45807 C 189.82718,-126.62627 190.01491,-126.38627 190.42078,-126.27446 C 190.82666,-126.16269 190.44848,-126.12047 190.74464,-125.76124 C 191.04074,-125.40202 191.21424,-124.84912 191.63294,-124.68358 C 192.05163,-124.51804 192.35547,-124.77688 192.92703,-124.85067 C 193.49859,-124.92447 195.15569,-125.16866 195.89498,-125.28803 C 196.63427,-125.40741 197.19441,-125.62092 197.56885,-125.55831 C 197.94329,-125.49571 197.85547,-125.40491 198.08221,-125.28357 C 198.76833,-124.44304 199.4622,-124.43357 200.69671,-124.74647 C 201.07804,-124.86673 201.59968,-124.74647 202.31397,-124.74647 C 203.02826,-124.74647 203.78476,-124.93691 204.1154,-125.08756 C 204.98009,-125.71759 205.66705,-125.16076 206.22529,-124.45256 C 206.49091,-124.12719 206.46576,-123.74049 207.02213,-123.47647 C 207.5785,-123.21244 208.64545,-123.47647 209.45711,-123.47647 C 210.26877,-123.47647 210.83375,-123.72254 211.32764,-123.47647 C 211.82153,-123.23039 212.24371,-123.01037 212.41953,-122.77733 C 213.034,-121.69353 213.57798,-122.24237 214.24199,-122.42455 C 215.3501,-122.72092 216.36874,-122.42955 217.10327,-121.61755 C 217.8378,-120.80591 219.05256,-120.51313 219.54467,-120.51313 C 220.03678,-120.51313 221.24456,-120.14201 221.66747,-120.29494 C 222.76497,-120.96979 223.49069,-120.30644 224.18036,-119.44827 C 224.51066,-119.05063 224.7943,-118.43228 225.17126,-118.25536 C 225.54823,-118.07843 225.70041,-118.25536 226.11898,-118.25536 C 226.53756,-118.25536 227.14519,-118.12836 227.24112,-117.97313 C 227.33702,-117.81791 228.34685,-117.69091 229.08355,-117.69091 C 231.17382,-117.949 231.02075,-117.2879 231.71457,-116.18547 C 232.4369,-115.05628 234.31625,-113.45758 234.88317,-113.45758 C 235.60067,-113.57848 235.62968,-113.33386 235.97401,-112.83034 C 236.16804,-112.55331 236.41334,-111.91213 236.41334,-111.55651 C 236.41334,-111.20089 236.53962,-110.68939 236.69397,-110.41986 C 236.84832,-110.15033 237.29951,-109.03029 237.55653,-108.31874 C 237.81355,-107.60718 237.87005,-107.09257 238.13846,-106.70767 C 238.40688,-106.32278 238.60948,-106.31134 238.98207,-105.99783 C 239.67043,-105.04518 241.3437,-105.2282 242.05401,-104.68795 C 242.49901,-104.12684 242.65545,-103.18152 243.45617,-102.93691 C 243.77205,-102.85431 244.12479,-102.541 244.19938,-102.34661 C 244.56791,-101.82237 244.11118,-101.53369 243.76849,-101.06419 C 243.56856,-100.78342 243.22446,-100.51745 243.1687,-100.22188 C 243.113,-99.926316 243.27344,-99.80456 243.3563,-99.474442 C 243.4392,-99.144324 243.97152,-98.166784 244.49417,-97.482071 C 245.62667,-96.209492 245.43456,-95.771162 244.33542,-94.88081 M 300.81482,-101.77592 L 302.95297,-157.63525 L -5.7433336,-158.97159 L -18.124794,-114.27107 M 40.813629,-95.395311 C 41.12081,-94.949879 41.28414,-94.463639 41.83818,-94.266421 C 42.069394,-94.266421 42.400915,-93.892028 42.513516,-93.595864 C 42.637174,-92.721657 43.393716,-92.616657 44.063551,-92.298368 C 44.635551,-92.021468 45.990728,-91.586644 46.490738,-91.519578 C 47.485667,-91.557608 47.711388,-91.265123 48.199658,-90.557661 C 48.391933,-90.287635 48.656786,-90.142369 48.776481,-89.747586 C 48.896171,-89.352807 48.525902,-88.921237 48.506265,-88.26756 C 48.486655,-87.613883 48.68424,-87.400992 48.711661,-86.999201 C 48.610754,-86.398636 49.04992,-86.072987 49.604079,-86.081977 C 50.587906,-86.261286 50.888994,-85.670421 51.319125,-85.235311 C 51.894551,-84.659884 52.90832,-84.344305 53.11015,-84.670867 C 53.311974,-84.997429 54.110415,-84.953088 54.763695,-84.953088 C 55.416973,-84.953088 55.943157,-84.828964 56.242817,-84.953088 C 56.595752,-85.112155 56.648584,-85.546792 56.903198,-85.613472 C 57.700978,-85.458712 59.846159,-84.636826 60.531734,-85.873764 C 60.817957,-86.470949 60.642822,-86.483197 60.90206,-86.646421 C 61.161296,-86.809648 61.556216,-86.646421 61.883294,-86.646421 C 62.210375,-86.646421 62.66695,-86.510613 62.86453,-86.646421 C 63.062111,-86.782229 62.956,-86.884787 63.028358,-87.073347 C 63.100718,-87.261908 63.041798,-87.681476 62.857998,-87.902948 C 62.590351,-88.503463 62.466423,-89.666378 62.705704,-89.891977 C 63.050202,-90.201175 63.745643,-91.023831 65.249159,-91.033284 C 66.752675,-91.042684 66.797927,-91.058894 66.797927,-91.756554 C 67.078208,-92.135552 67.445079,-92.127553 68.113152,-92.731396 C 68.363414,-92.963327 68.487635,-93.307584 68.863934,-93.427197 C 69.240232,-93.546805 69.753124,-93.309243 70.197719,-93.250262 C 71.204861,-92.951278 71.561906,-93.086321 72.12087,-93.662697 C 72.38117,-93.923 72.794023,-94.604543 72.89643,-95.035353 C 73.114618,-95.578085 73.480955,-96.584534 73.940965,-96.806421 C 74.179556,-96.915181 74.553597,-96.806421 74.859911,-96.806421 C 75.166227,-96.806421 75.468534,-96.950868 75.778861,-96.806421 C 76.089186,-96.661974 76.265957,-96.227542 76.509506,-95.938101 C 76.753055,-95.648657 77.13352,-95.362119 77.240147,-95.069781 C 77.308537,-94.455492 77.244647,-94.208686 76.798714,-93.681972 C 76.603745,-93.466535 76.434592,-92.903716 76.357275,-92.629748 C 76.526844,-92.010607 76.435555,-91.06273 76.74454,-90.56544 C 77.239875,-90.138754 77.372876,-90.453201 77.52237,-89.709314 C 77.52237,-89.470337 77.637914,-89.334172 77.52237,-89.168234 C 77.128006,-88.861309 77.022628,-88.394555 76.826014,-88.137388 C 76.618501,-87.850556 76.810874,-87.718587 76.773574,-86.686347 C 76.736264,-85.654109 77.133313,-85.213922 77.663485,-85.799754 C 78.193659,-86.385589 78.279387,-86.364201 78.407826,-86.364201 C 78.536266,-86.364201 79.344994,-87.038407 79.901603,-87.571732 C 80.458212,-88.105058 80.726375,-88.531964 81.161853,-88.779264 C 81.597331,-89.026568 81.839753,-88.966079 82.376005,-89.113856 C 82.912254,-89.261634 84.084462,-89.75609 84.475487,-89.999451 C 84.866509,-90.24281 85.159734,-90.229475 85.36082,-90.550451 C 85.561906,-90.871431 85.43294,-91.233285 85.489995,-91.773437 C 85.547045,-92.313587 85.511905,-93.210323 85.380772,-93.471758 C 85.249652,-93.73319 85.14238,-94.410881 85.14238,-94.777755 C 85.07361,-95.391474 85.09322,-95.686056 85.594336,-95.983509 C 85.744989,-96.10854 85.930063,-96.061659 86.046292,-96.358601 C 86.353401,-97.397762 85.589176,-98.299351 86.619429,-98.716538 C 86.777282,-98.846202 86.806323,-99.629049 87.117944,-99.672158 C 87.777796,-99.669258 87.936493,-99.779356 87.915631,-100.41961 C 87.846501,-101.21713 88.371659,-101.25288 89.003907,-101.54449 C 89.335957,-101.70284 89.648321,-102.10052 90.000056,-102.01952 C 90.35179,-101.93852 90.441463,-101.46595 90.662165,-101.18916 C 90.895882,-100.71455 91.521201,-99.959527 91.462365,-100.76983 C 91.523355,-100.95137 91.609659,-101.23809 91.69077,-101.74207 C 91.77188,-102.24605 92.955761,-102.44276 93.515754,-102.14306 C 94.075748,-101.84336 93.895812,-101.17084 94.194932,-101.21513 C 94.494049,-101.25943 95.472229,-102.49242 96.062006,-103.0822 C 96.651783,-103.67198 95.793491,-104.94191 95.672114,-105.68988 C 95.550734,-106.43785 96.609473,-106.84759 96.651713,-107.17426 C 96.694013,-107.50092 96.888453,-107.70714 97.075723,-108.12867 C 97.262993,-108.5502 96.942593,-109.10525 97.100223,-109.58338 C 97.257843,-110.06151 97.806473,-110.60649 98.778653,-110.11961 C 99.750843,-109.63273 100.38239,-109.81684 100.38239,-110.31853 C 100.38239,-110.82022 101.7485,-111.04529 101.93615,-111.20102 C 102.36106,-111.7691 102.31189,-111.47813 102.96564,-111.36669 C 103.35533,-111.30439 103.8041,-111.07826 104.13471,-111.17974 C 104.46532,-111.28122 104.56766,-111.58648 104.78414,-111.78985"
       style="display:inline;opacity:1;fill:none;fill-opacity:1;stroke:#000000;stroke-width:0.49999994;stroke-linejoin:round;stroke-miterlimit:4;stroke-dasharray:none;stroke-opacity:1"
       transform="translate(3.605177,129.83692)" />
  </g>
</svg>
