<?xml version="1.0" encoding="UTF-8" standalone="no"?>
<svg
   xmlns:dc="http://purl.org/dc/elements/1.1/"
   xmlns:cc="http://creativecommons.org/ns#"
   xmlns:rdf="http://www.w3.org/1999/02/22-rdf-syntax-ns#"
   xmlns:svg="http://www.w3.org/2000/svg"
   xmlns="http://www.w3.org/2000/svg"
   id="svg1093"
   version="1.1"
   viewBox="0 0 286.91275 144.59052"
   height="144.59052mm"
   width="286.91275mm">
  <defs
     id="defs1087">
    <clipPath
       id="p711d462d76-4-3">
      <rect
         height="295.20001"
         width="575.28003"
         x="115.056"
         y="39.360001"
         id="rect21264-8"
         style="stroke-linecap:butt;stroke-linejoin:round" />
    </clipPath>
    <clipPath
       id="clipPath880">
      <rect
         height="295.20001"
         width="575.28003"
         x="115.056"
         y="39.360001"
         id="rect878"
         style="stroke-linecap:butt;stroke-linejoin:round" />
    </clipPath>
    <clipPath
       id="clipPath884">
      <rect
         height="295.20001"
         width="575.28003"
         x="115.056"
         y="39.360001"
         id="rect882"
         style="stroke-linecap:butt;stroke-linejoin:round" />
    </clipPath>
    <clipPath
       id="clipPath888">
      <rect
         height="295.20001"
         width="575.28003"
         x="115.056"
         y="39.360001"
         id="rect886"
         style="stroke-linecap:butt;stroke-linejoin:round" />
    </clipPath>
    <clipPath
       id="clipPath892">
      <rect
         height="295.20001"
         width="575.28003"
         x="115.056"
         y="39.360001"
         id="rect890"
         style="stroke-linecap:butt;stroke-linejoin:round" />
    </clipPath>
    <clipPath
       id="clipPath896">
      <rect
         height="295.20001"
         width="575.28003"
         x="115.056"
         y="39.360001"
         id="rect894"
         style="stroke-linecap:butt;stroke-linejoin:round" />
    </clipPath>
    <clipPath
       id="clipPath900">
      <rect
         height="295.20001"
         width="575.28003"
         x="115.056"
         y="39.360001"
         id="rect898"
         style="stroke-linecap:butt;stroke-linejoin:round" />
    </clipPath>
    <clipPath
       id="clipPath904">
      <rect
         height="295.20001"
         width="575.28003"
         x="115.056"
         y="39.360001"
         id="rect902"
         style="stroke-linecap:butt;stroke-linejoin:round" />
    </clipPath>
    <clipPath
       id="clipPath908">
      <rect
         height="295.20001"
         width="575.28003"
         x="115.056"
         y="39.360001"
         id="rect906"
         style="stroke-linecap:butt;stroke-linejoin:round" />
    </clipPath>
    <clipPath
       id="clipPath912">
      <rect
         height="295.20001"
         width="575.28003"
         x="115.056"
         y="39.360001"
         id="rect910"
         style="stroke-linecap:butt;stroke-linejoin:round" />
    </clipPath>
    <clipPath
       id="clipPath916">
      <rect
         height="295.20001"
         width="575.28003"
         x="115.056"
         y="39.360001"
         id="rect914"
         style="stroke-linecap:butt;stroke-linejoin:round" />
    </clipPath>
    <clipPath
       id="clipPath920">
      <rect
         height="295.20001"
         width="575.28003"
         x="115.056"
         y="39.360001"
         id="rect918"
         style="stroke-linecap:butt;stroke-linejoin:round" />
    </clipPath>
    <clipPath
       id="clipPath924">
      <rect
         height="295.20001"
         width="575.28003"
         x="115.056"
         y="39.360001"
         id="rect922"
         style="stroke-linecap:butt;stroke-linejoin:round" />
    </clipPath>
    <clipPath
       id="clipPath928">
      <rect
         height="295.20001"
         width="575.28003"
         x="115.056"
         y="39.360001"
         id="rect926"
         style="stroke-linecap:butt;stroke-linejoin:round" />
    </clipPath>
    <clipPath
       id="clipPath932">
      <rect
         height="295.20001"
         width="575.28003"
         x="115.056"
         y="39.360001"
         id="rect930"
         style="stroke-linecap:butt;stroke-linejoin:round" />
    </clipPath>
    <clipPath
       id="clipPath936">
      <rect
         height="295.20001"
         width="575.28003"
         x="115.056"
         y="39.360001"
         id="rect934"
         style="stroke-linecap:butt;stroke-linejoin:round" />
    </clipPath>
    <clipPath
       id="clipPath940">
      <rect
         height="295.20001"
         width="575.28003"
         x="115.056"
         y="39.360001"
         id="rect938"
         style="stroke-linecap:butt;stroke-linejoin:round" />
    </clipPath>
    <clipPath
       id="clipPath944">
      <rect
         height="295.20001"
         width="575.28003"
         x="115.056"
         y="39.360001"
         id="rect942"
         style="stroke-linecap:butt;stroke-linejoin:round" />
    </clipPath>
    <clipPath
       id="clipPath948">
      <rect
         height="295.20001"
         width="575.28003"
         x="115.056"
         y="39.360001"
         id="rect946"
         style="stroke-linecap:butt;stroke-linejoin:round" />
    </clipPath>
    <clipPath
       id="clipPath952">
      <rect
         height="295.20001"
         width="575.28003"
         x="115.056"
         y="39.360001"
         id="rect950"
         style="stroke-linecap:butt;stroke-linejoin:round" />
    </clipPath>
    <clipPath
       id="clipPath956">
      <rect
         height="295.20001"
         width="575.28003"
         x="115.056"
         y="39.360001"
         id="rect954"
         style="stroke-linecap:butt;stroke-linejoin:round" />
    </clipPath>
    <clipPath
       id="clipPath960">
      <rect
         height="295.20001"
         width="575.28003"
         x="115.056"
         y="39.360001"
         id="rect958"
         style="stroke-linecap:butt;stroke-linejoin:round" />
    </clipPath>
    <clipPath
       id="clipPath964">
      <rect
         height="295.20001"
         width="575.28003"
         x="115.056"
         y="39.360001"
         id="rect962"
         style="stroke-linecap:butt;stroke-linejoin:round" />
    </clipPath>
    <clipPath
       id="clipPath968">
      <rect
         height="295.20001"
         width="575.28003"
         x="115.056"
         y="39.360001"
         id="rect966"
         style="stroke-linecap:butt;stroke-linejoin:round" />
    </clipPath>
    <clipPath
       id="clipPath972">
      <rect
         height="295.20001"
         width="575.28003"
         x="115.056"
         y="39.360001"
         id="rect970"
         style="stroke-linecap:butt;stroke-linejoin:round" />
    </clipPath>
  </defs>
  <metadata
     id="metadata1090">
    <rdf:RDF>
      <cc:Work
         rdf:about="">
        <dc:format>image/svg+xml</dc:format>
        <dc:type
           rdf:resource="http://purl.org/dc/dcmitype/StillImage" />
        <dc:title></dc:title>
      </cc:Work>
    </rdf:RDF>
  </metadata>
  <g
     transform="translate(3.6051771,129.83692)"
     id="layer1">
    <path
       id="path3165"
       d="M 269.59063,-48.327013 C 269.1896,-48.899555 269.15129,-49.065552 269.15129,-49.201582 269.15129,-49.337613 269.46199,-49.419192 269.26128,-49.842186 269.06054,-50.265181 268.10185,-50.507359 268.07293,-50.799912 268.04393,-51.092461 268.52579,-51.734634 268.58289,-51.962173 268.63999,-52.189712 268.24165,-52.541436 268.44377,-52.842424 268.64586,-53.143408 268.86967,-52.938934 269.77042,-53.601344 270.67114,-54.263755 272.18424,-54.373538 272.74412,-53.847547 273.30401,-53.321555 273.16441,-53.246249 273.41,-53.221992 273.65556,-53.197732 273.67868,-53.389405 273.8912,-53.521834 274.10374,-53.654263 274.55062,-54.358079 274.69164,-54.782391 274.83269,-55.206703 274.80279,-55.592955 275.01094,-55.743104 275.57418,-55.866812 275.95391,-55.284141 276.06573,-55.17866 276.48964,-54.765831 276.11913,-53.728593 276.14573,-52.721337 276.17223,-51.714079 276.56771,-50.842978 276.22573,-50.264014 275.97549,-49.778951 275.66381,-49.457657 274.99285,-49.33458 274.64892,-49.27931 274.283,-49.448089 273.92807,-49.504845 273.57313,-49.561595 272.64799,-49.771923 272.29884,-49.675112 271.94967,-49.578302 272.11514,-48.956102 271.46046,-48.405218 270.80577,-47.854335 269.9917,-47.754473 269.59067,-48.327018 Z"
       style="display:inline;opacity:1;fill:#ffffff;fill-opacity:1;stroke:#000000;stroke-width:0.49999994;stroke-linejoin:round;stroke-miterlimit:4;stroke-dasharray:none;stroke-opacity:1" />
  </g>
</svg>
